<svg width="1440" height="900" viewBox="0 0 1440 900" fill="none" xmlns="http://www.w3.org/2000/svg">
<rect width="1440" height="900" fill="#FFDF71"/>
<path d="M274.699 492.182V476.273H337.909V492.182H316.034V549H296.574V492.182H274.699ZM360.226 518.318V549H340.624V476.273H359.516V504.824H360.084C361.315 501.344 363.363 498.633 366.228 496.692C369.092 494.727 372.537 493.744 376.561 493.744C380.42 493.744 383.77 494.62 386.611 496.372C389.476 498.124 391.689 500.539 393.252 503.616C394.838 506.694 395.619 510.222 395.596 514.199V549H375.993V518.318C376.017 515.619 375.342 513.5 373.969 511.962C372.62 510.423 370.69 509.653 368.181 509.653C366.595 509.653 365.198 510.009 363.99 510.719C362.807 511.405 361.883 512.4 361.221 513.702C360.581 514.98 360.25 516.519 360.226 518.318ZM426.409 549.994C420.585 549.994 415.566 548.882 411.352 546.656C407.162 544.407 403.93 541.187 401.657 536.997C399.408 532.783 398.284 527.741 398.284 521.869C398.284 516.235 399.42 511.311 401.693 507.097C403.966 502.883 407.173 499.604 411.316 497.26C415.459 494.916 420.348 493.744 425.983 493.744C430.102 493.744 433.831 494.384 437.169 495.662C440.507 496.94 443.359 498.799 445.727 501.237C448.094 503.652 449.917 506.588 451.196 510.044C452.474 513.5 453.113 517.395 453.113 521.727V526.273H404.392V515.477H435.074C435.05 513.915 434.647 512.542 433.866 511.358C433.109 510.151 432.079 509.215 430.777 508.553C429.498 507.866 428.042 507.523 426.409 507.523C424.823 507.523 423.367 507.866 422.041 508.553C420.715 509.215 419.65 510.139 418.845 511.322C418.064 512.506 417.649 513.891 417.602 515.477V527.125C417.602 528.877 417.969 530.439 418.703 531.812C419.437 533.186 420.49 534.263 421.863 535.044C423.236 535.825 424.894 536.216 426.835 536.216C428.184 536.216 429.415 536.027 430.528 535.648C431.664 535.269 432.635 534.724 433.44 534.014C434.245 533.28 434.837 532.404 435.216 531.386H453.113C452.498 535.174 451.042 538.465 448.745 541.259C446.449 544.028 443.407 546.183 439.619 547.722C435.855 549.237 431.451 549.994 426.409 549.994ZM503.705 494.455V508.659H467.199V494.455H503.705ZM474.159 549V492.892C474.159 488.394 474.964 484.665 476.574 481.706C478.184 478.747 480.456 476.533 483.392 475.065C486.328 473.598 489.784 472.864 493.761 472.864C496.247 472.864 498.662 473.053 501.006 473.432C503.373 473.811 505.125 474.142 506.261 474.426L503.42 488.489C502.71 488.276 501.882 488.11 500.935 487.991C499.988 487.849 499.159 487.778 498.449 487.778C496.602 487.778 495.359 488.169 494.72 488.95C494.081 489.732 493.761 490.761 493.761 492.04V549H474.159ZM541.638 525.136V494.455H561.24V549H542.632V538.631H542.064C540.88 542.111 538.809 544.833 535.849 546.798C532.89 548.74 529.375 549.71 525.303 549.71C521.491 549.71 518.153 548.834 515.288 547.082C512.447 545.33 510.234 542.916 508.648 539.838C507.085 536.76 506.292 533.233 506.268 529.256V494.455H525.871V525.136C525.894 527.835 526.581 529.954 527.93 531.493C529.304 533.032 531.221 533.801 533.683 533.801C535.317 533.801 536.725 533.458 537.909 532.771C539.116 532.061 540.04 531.067 540.679 529.788C541.342 528.486 541.661 526.936 541.638 525.136ZM598.738 494.455V508.659H562.801V494.455H598.738ZM569.761 481.386H589.363V531.457C589.363 532.215 589.493 532.854 589.754 533.375C590.014 533.872 590.417 534.251 590.961 534.511C591.506 534.748 592.204 534.866 593.056 534.866C593.648 534.866 594.335 534.795 595.116 534.653C595.921 534.511 596.513 534.393 596.892 534.298L599.733 548.077C598.857 548.337 597.602 548.657 595.968 549.036C594.359 549.414 592.441 549.663 590.216 549.781C585.717 550.018 581.941 549.556 578.887 548.396C575.833 547.213 573.537 545.354 571.998 542.821C570.459 540.288 569.714 537.116 569.761 533.304V481.386ZM637.107 525.136V494.455H656.709V549H638.101V538.631H637.533C636.349 542.111 634.277 544.833 631.318 546.798C628.359 548.74 624.843 549.71 620.771 549.71C616.96 549.71 613.622 548.834 610.757 547.082C607.916 545.33 605.703 542.916 604.116 539.838C602.554 536.76 601.761 533.233 601.737 529.256V494.455H621.339V525.136C621.363 527.835 622.05 529.954 623.399 531.493C624.772 533.032 626.69 533.801 629.152 533.801C630.786 533.801 632.194 533.458 633.378 532.771C634.585 532.061 635.509 531.067 636.148 529.788C636.811 528.486 637.13 526.936 637.107 525.136ZM661.679 549V494.455H680.713V504.824H681.281C682.275 500.989 683.85 498.183 686.004 496.408C688.182 494.632 690.727 493.744 693.639 493.744C694.491 493.744 695.332 493.815 696.16 493.957C697.012 494.076 697.829 494.253 698.61 494.49V511.216C697.64 510.884 696.444 510.636 695.024 510.47C693.603 510.304 692.384 510.222 691.366 510.222C689.449 510.222 687.72 510.66 686.181 511.536C684.666 512.388 683.471 513.595 682.595 515.158C681.719 516.696 681.281 518.508 681.281 520.591V549H661.679ZM723.049 549.994C717.225 549.994 712.207 548.882 707.993 546.656C703.802 544.407 700.571 541.187 698.298 536.997C696.049 532.783 694.924 527.741 694.924 521.869C694.924 516.235 696.061 511.311 698.333 507.097C700.606 502.883 703.814 499.604 707.957 497.26C712.1 494.916 716.989 493.744 722.623 493.744C726.743 493.744 730.471 494.384 733.809 495.662C737.147 496.94 740 498.799 742.368 501.237C744.735 503.652 746.558 506.588 747.836 510.044C749.115 513.5 749.754 517.395 749.754 521.727V526.273H701.032V515.477H731.714C731.69 513.915 731.288 512.542 730.507 511.358C729.749 510.151 728.719 509.215 727.417 508.553C726.139 507.866 724.683 507.523 723.049 507.523C721.463 507.523 720.007 507.866 718.681 508.553C717.356 509.215 716.29 510.139 715.485 511.322C714.704 512.506 714.29 513.891 714.243 515.477V527.125C714.243 528.877 714.609 530.439 715.343 531.812C716.077 533.186 717.131 534.263 718.504 535.044C719.877 535.825 721.534 536.216 723.475 536.216C724.825 536.216 726.056 536.027 727.169 535.648C728.305 535.269 729.276 534.724 730.081 534.014C730.886 533.28 731.477 532.404 731.856 531.386H749.754C749.138 535.174 747.682 538.465 745.386 541.259C743.09 544.028 740.047 546.183 736.26 547.722C732.495 549.237 728.092 549.994 723.049 549.994ZM767.675 549V494.455H787.277V549H767.675ZM777.476 488.773C774.824 488.773 772.552 487.897 770.658 486.145C768.764 484.393 767.817 482.286 767.817 479.824C767.817 477.362 768.764 475.255 770.658 473.503C772.552 471.751 774.824 470.875 777.476 470.875C780.151 470.875 782.424 471.751 784.294 473.503C786.188 475.255 787.135 477.362 787.135 479.824C787.135 482.286 786.188 484.393 784.294 486.145C782.424 487.897 780.151 488.773 777.476 488.773ZM842.123 512.21H824.083C823.988 511.098 823.597 510.139 822.911 509.334C822.224 508.529 821.337 507.913 820.248 507.487C819.182 507.037 817.998 506.812 816.696 506.812C815.016 506.812 813.571 507.12 812.364 507.736C811.157 508.351 810.565 509.227 810.588 510.364C810.565 511.169 810.908 511.914 811.618 512.601C812.352 513.287 813.761 513.82 815.844 514.199L826.924 516.188C832.511 517.205 836.666 518.922 839.388 521.337C842.134 523.728 843.519 526.936 843.543 530.96C843.519 534.843 842.359 538.216 840.063 541.081C837.79 543.922 834.677 546.124 830.723 547.686C826.793 549.225 822.307 549.994 817.265 549.994C808.931 549.994 802.409 548.29 797.698 544.881C793.01 541.472 790.394 536.973 789.85 531.386H809.31C809.57 533.115 810.423 534.452 811.867 535.399C813.335 536.322 815.181 536.784 817.407 536.784C819.206 536.784 820.685 536.476 821.846 535.861C823.029 535.245 823.633 534.369 823.657 533.233C823.633 532.191 823.112 531.363 822.094 530.747C821.1 530.132 819.537 529.634 817.407 529.256L807.748 527.551C802.184 526.58 798.017 524.734 795.248 522.011C792.478 519.289 791.105 515.785 791.128 511.5C791.105 507.712 792.099 504.504 794.111 501.876C796.147 499.225 799.047 497.213 802.811 495.839C806.599 494.443 811.086 493.744 816.27 493.744C824.154 493.744 830.368 495.378 834.914 498.645C839.483 501.912 841.886 506.434 842.123 512.21Z" fill="black"/>
<path d="M915.947 494.455L897.623 549H874.896L856.572 494.455H877.169L885.975 530.534H886.544L895.35 494.455H915.947ZM916.522 549V494.455H936.125V549H916.522ZM926.324 488.773C923.672 488.773 921.399 487.897 919.505 486.145C917.611 484.393 916.664 482.286 916.664 479.824C916.664 477.362 917.611 475.255 919.505 473.503C921.399 471.751 923.672 470.875 926.324 470.875C928.999 470.875 931.271 471.751 933.142 473.503C935.036 475.255 935.983 477.362 935.983 479.824C935.983 482.286 935.036 484.393 933.142 486.145C931.271 487.897 928.999 488.773 926.324 488.773ZM941.112 549V494.455H960.146V504.824H960.714C961.709 500.989 963.283 498.183 965.438 496.408C967.616 494.632 970.161 493.744 973.072 493.744C973.925 493.744 974.765 493.815 975.594 493.957C976.446 494.076 977.263 494.253 978.044 494.49V511.216C977.073 510.884 975.878 510.636 974.457 510.47C973.037 510.304 971.818 510.222 970.8 510.222C968.882 510.222 967.154 510.66 965.615 511.536C964.1 512.388 962.904 513.595 962.028 515.158C961.152 516.696 960.714 518.508 960.714 520.591V549H941.112ZM1014.25 494.455V508.659H978.309V494.455H1014.25ZM985.269 481.386H1004.87V531.457C1004.87 532.215 1005 532.854 1005.26 533.375C1005.52 533.872 1005.92 534.251 1006.47 534.511C1007.01 534.748 1007.71 534.866 1008.56 534.866C1009.16 534.866 1009.84 534.795 1010.62 534.653C1011.43 534.511 1012.02 534.393 1012.4 534.298L1015.24 548.077C1014.36 548.337 1013.11 548.657 1011.48 549.036C1009.87 549.414 1007.95 549.663 1005.72 549.781C1001.23 550.018 997.449 549.556 994.395 548.396C991.341 547.213 989.045 545.354 987.506 542.821C985.967 540.288 985.221 537.116 985.269 533.304V481.386ZM1052.61 525.136V494.455H1072.22V549H1053.61V538.631H1053.04C1051.86 542.111 1049.79 544.833 1046.83 546.798C1043.87 548.74 1040.35 549.71 1036.28 549.71C1032.47 549.71 1029.13 548.834 1026.26 547.082C1023.42 545.33 1021.21 542.916 1019.62 539.838C1018.06 536.76 1017.27 533.233 1017.25 529.256V494.455H1036.85V525.136C1036.87 527.835 1037.56 529.954 1038.91 531.493C1040.28 533.032 1042.2 533.801 1044.66 533.801C1046.29 533.801 1047.7 533.458 1048.89 532.771C1050.09 532.061 1051.02 531.067 1051.66 529.788C1052.32 528.486 1052.64 526.936 1052.61 525.136ZM1092.39 549.852C1088.91 549.852 1085.83 549.284 1083.15 548.148C1080.5 546.988 1078.42 545.236 1076.9 542.892C1075.39 540.548 1074.63 537.565 1074.63 533.943C1074.63 530.96 1075.14 528.415 1076.16 526.308C1077.17 524.178 1078.6 522.438 1080.42 521.088C1082.24 519.739 1084.36 518.709 1086.77 517.999C1089.21 517.288 1091.84 516.827 1094.66 516.614C1097.71 516.377 1100.16 516.093 1102.01 515.761C1103.88 515.406 1105.23 514.921 1106.06 514.305C1106.89 513.666 1107.3 512.826 1107.3 511.784V511.642C1107.3 510.222 1106.76 509.133 1105.67 508.375C1104.58 507.617 1103.18 507.239 1101.48 507.239C1099.61 507.239 1098.08 507.653 1096.9 508.482C1095.74 509.286 1095.04 510.529 1094.8 512.21H1076.76C1077 508.896 1078.05 505.842 1079.92 503.048C1081.81 500.231 1084.57 497.982 1088.19 496.301C1091.82 494.597 1096.34 493.744 1101.76 493.744C1105.67 493.744 1109.17 494.206 1112.27 495.129C1115.37 496.029 1118.01 497.295 1120.19 498.929C1122.37 500.539 1124.03 502.433 1125.16 504.611C1126.32 506.765 1126.9 509.109 1126.9 511.642V549H1108.58V541.33H1108.15C1107.06 543.366 1105.74 545.011 1104.18 546.266C1102.64 547.52 1100.87 548.432 1098.88 549C1096.92 549.568 1094.75 549.852 1092.39 549.852ZM1098.78 537.494C1100.27 537.494 1101.67 537.187 1102.97 536.571C1104.29 535.955 1105.37 535.068 1106.2 533.908C1107.03 532.748 1107.44 531.339 1107.44 529.682V525.136C1106.92 525.349 1106.36 525.551 1105.77 525.74C1105.2 525.929 1104.59 526.107 1103.93 526.273C1103.29 526.438 1102.6 526.592 1101.87 526.734C1101.16 526.876 1100.41 527.007 1099.63 527.125C1098.11 527.362 1096.87 527.752 1095.9 528.297C1094.95 528.818 1094.24 529.469 1093.77 530.25C1093.32 531.008 1093.1 531.86 1093.1 532.807C1093.1 534.322 1093.63 535.482 1094.69 536.287C1095.76 537.092 1097.12 537.494 1098.78 537.494ZM1150.87 476.273V549H1131.27V476.273H1150.87ZM1166.51 550.136C1163.77 550.136 1161.41 549.178 1159.44 547.26C1157.5 545.319 1156.54 542.963 1156.57 540.193C1156.54 537.494 1157.5 535.186 1159.44 533.268C1161.41 531.351 1163.77 530.392 1166.51 530.392C1169.12 530.392 1171.41 531.351 1173.4 533.268C1175.41 535.186 1176.43 537.494 1176.45 540.193C1176.43 542.04 1175.95 543.721 1175 545.236C1174.08 546.727 1172.87 547.923 1171.38 548.822C1169.89 549.698 1168.26 550.136 1166.51 550.136Z" fill="url(#paint0_linear_1808_484)"/>
<path d="M483.749 630H480.953L487.235 612.545H490.277L496.559 630H493.763L488.828 615.716H488.692L483.749 630ZM484.218 623.165H493.286V625.381H484.218V623.165ZM500.703 622.227V630H498.155V616.909H500.601V619.04H500.763C501.064 618.347 501.535 617.79 502.177 617.369C502.825 616.949 503.64 616.739 504.623 616.739C505.515 616.739 506.297 616.926 506.967 617.301C507.638 617.67 508.157 618.222 508.527 618.955C508.896 619.687 509.081 620.594 509.081 621.673V630H506.532V621.98C506.532 621.031 506.285 620.29 505.791 619.756C505.297 619.216 504.618 618.946 503.754 618.946C503.163 618.946 502.638 619.074 502.177 619.33C501.723 619.585 501.362 619.96 501.095 620.455C500.834 620.943 500.703 621.534 500.703 622.227ZM516.679 630.256C515.622 630.256 514.679 629.986 513.849 629.446C513.026 628.901 512.378 628.125 511.906 627.119C511.44 626.108 511.207 624.895 511.207 623.48C511.207 622.065 511.443 620.855 511.915 619.849C512.392 618.844 513.045 618.074 513.875 617.54C514.705 617.006 515.645 616.739 516.696 616.739C517.508 616.739 518.162 616.875 518.656 617.148C519.156 617.415 519.543 617.727 519.815 618.085C520.094 618.443 520.31 618.759 520.463 619.031H520.616V612.545H523.165V630H520.676V627.963H520.463C520.31 628.241 520.088 628.56 519.798 628.918C519.514 629.276 519.122 629.588 518.622 629.855C518.122 630.122 517.474 630.256 516.679 630.256ZM517.241 628.082C517.974 628.082 518.594 627.889 519.099 627.503C519.611 627.111 519.997 626.568 520.258 625.875C520.526 625.182 520.659 624.375 520.659 623.455C520.659 622.545 520.528 621.75 520.267 621.068C520.006 620.386 519.622 619.855 519.116 619.474C518.611 619.094 517.986 618.903 517.241 618.903C516.474 618.903 515.835 619.102 515.324 619.5C514.812 619.898 514.426 620.44 514.165 621.128C513.909 621.815 513.781 622.591 513.781 623.455C513.781 624.33 513.912 625.116 514.173 625.815C514.435 626.514 514.821 627.068 515.332 627.477C515.849 627.881 516.486 628.082 517.241 628.082ZM534.551 630L530.699 616.909H533.333L535.898 626.523H536.026L538.6 616.909H541.233L543.79 626.48H543.918L546.466 616.909H549.1L545.256 630H542.657L539.997 620.548H539.801L537.142 630H534.551ZM556.042 630.264C554.752 630.264 553.641 629.989 552.709 629.438C551.783 628.881 551.067 628.099 550.562 627.094C550.062 626.082 549.812 624.898 549.812 623.54C549.812 622.199 550.062 621.017 550.562 619.994C551.067 618.972 551.772 618.173 552.675 617.599C553.584 617.026 554.647 616.739 555.863 616.739C556.601 616.739 557.317 616.861 558.01 617.105C558.704 617.349 559.326 617.733 559.877 618.256C560.428 618.778 560.863 619.457 561.181 620.293C561.499 621.122 561.658 622.131 561.658 623.318V624.222H551.252V622.312H559.161C559.161 621.642 559.025 621.048 558.752 620.531C558.479 620.009 558.096 619.597 557.601 619.295C557.113 618.994 556.539 618.844 555.88 618.844C555.164 618.844 554.539 619.02 554.005 619.372C553.476 619.719 553.067 620.173 552.777 620.736C552.493 621.293 552.351 621.898 552.351 622.551V624.043C552.351 624.918 552.505 625.662 552.812 626.276C553.124 626.889 553.559 627.358 554.116 627.682C554.672 628 555.323 628.159 556.067 628.159C556.55 628.159 556.991 628.091 557.388 627.955C557.786 627.812 558.13 627.602 558.42 627.324C558.709 627.045 558.931 626.702 559.084 626.293L561.496 626.727C561.303 627.437 560.956 628.06 560.456 628.594C559.962 629.122 559.34 629.534 558.59 629.83C557.846 630.119 556.996 630.264 556.042 630.264ZM569.602 630V612.545H572.15V619.031H572.303C572.451 618.759 572.664 618.443 572.943 618.085C573.221 617.727 573.607 617.415 574.102 617.148C574.596 616.875 575.249 616.739 576.062 616.739C577.119 616.739 578.062 617.006 578.891 617.54C579.721 618.074 580.372 618.844 580.843 619.849C581.32 620.855 581.559 622.065 581.559 623.48C581.559 624.895 581.323 626.108 580.852 627.119C580.38 628.125 579.732 628.901 578.908 629.446C578.085 629.986 577.144 630.256 576.087 630.256C575.292 630.256 574.641 630.122 574.136 629.855C573.636 629.588 573.244 629.276 572.96 628.918C572.676 628.56 572.457 628.241 572.303 627.963H572.09V630H569.602ZM572.099 623.455C572.099 624.375 572.232 625.182 572.499 625.875C572.766 626.568 573.153 627.111 573.658 627.503C574.164 627.889 574.783 628.082 575.516 628.082C576.278 628.082 576.914 627.881 577.426 627.477C577.937 627.068 578.323 626.514 578.585 625.815C578.852 625.116 578.985 624.33 578.985 623.455C578.985 622.591 578.855 621.815 578.593 621.128C578.337 620.44 577.951 619.898 577.434 619.5C576.923 619.102 576.283 618.903 575.516 618.903C574.778 618.903 574.153 619.094 573.641 619.474C573.136 619.855 572.752 620.386 572.491 621.068C572.23 621.75 572.099 622.545 572.099 623.455ZM589.343 630.264C588.053 630.264 586.942 629.989 586.01 629.438C585.084 628.881 584.368 628.099 583.862 627.094C583.362 626.082 583.112 624.898 583.112 623.54C583.112 622.199 583.362 621.017 583.862 619.994C584.368 618.972 585.073 618.173 585.976 617.599C586.885 617.026 587.948 616.739 589.164 616.739C589.902 616.739 590.618 616.861 591.311 617.105C592.005 617.349 592.627 617.733 593.178 618.256C593.729 618.778 594.164 619.457 594.482 620.293C594.8 621.122 594.959 622.131 594.959 623.318V624.222H584.553V622.312H592.462C592.462 621.642 592.326 621.048 592.053 620.531C591.78 620.009 591.397 619.597 590.902 619.295C590.414 618.994 589.84 618.844 589.181 618.844C588.465 618.844 587.84 619.02 587.306 619.372C586.777 619.719 586.368 620.173 586.078 620.736C585.794 621.293 585.652 621.898 585.652 622.551V624.043C585.652 624.918 585.806 625.662 586.112 626.276C586.425 626.889 586.86 627.358 587.416 627.682C587.973 628 588.624 628.159 589.368 628.159C589.851 628.159 590.291 628.091 590.689 627.955C591.087 627.812 591.431 627.602 591.72 627.324C592.01 627.045 592.232 626.702 592.385 626.293L594.797 626.727C594.604 627.437 594.257 628.06 593.757 628.594C593.263 629.122 592.641 629.534 591.891 629.83C591.147 630.119 590.297 630.264 589.343 630.264ZM599.615 612.545V630H597.066V612.545H599.615ZM602.323 630V616.909H604.871V630H602.323ZM603.61 614.889C603.167 614.889 602.786 614.741 602.468 614.446C602.155 614.145 601.999 613.787 601.999 613.372C601.999 612.952 602.155 612.594 602.468 612.298C602.786 611.997 603.167 611.847 603.61 611.847C604.053 611.847 604.431 611.997 604.744 612.298C605.062 612.594 605.221 612.952 605.221 613.372C605.221 613.787 605.062 614.145 604.744 614.446C604.431 614.741 604.053 614.889 603.61 614.889ZM613.222 630.264C611.932 630.264 610.821 629.989 609.889 629.438C608.963 628.881 608.247 628.099 607.742 627.094C607.242 626.082 606.992 624.898 606.992 623.54C606.992 622.199 607.242 621.017 607.742 619.994C608.247 618.972 608.952 618.173 609.855 617.599C610.764 617.026 611.827 616.739 613.043 616.739C613.781 616.739 614.497 616.861 615.19 617.105C615.884 617.349 616.506 617.733 617.057 618.256C617.608 618.778 618.043 619.457 618.361 620.293C618.679 621.122 618.838 622.131 618.838 623.318V624.222H608.432V622.312H616.341C616.341 621.642 616.205 621.048 615.932 620.531C615.659 620.009 615.276 619.597 614.781 619.295C614.293 618.994 613.719 618.844 613.06 618.844C612.344 618.844 611.719 619.02 611.185 619.372C610.656 619.719 610.247 620.173 609.957 620.736C609.673 621.293 609.531 621.898 609.531 622.551V624.043C609.531 624.918 609.685 625.662 609.992 626.276C610.304 626.889 610.739 627.358 611.296 627.682C611.852 628 612.503 628.159 613.247 628.159C613.73 628.159 614.171 628.091 614.568 627.955C614.966 627.812 615.31 627.602 615.6 627.324C615.889 627.045 616.111 626.702 616.264 626.293L618.676 626.727C618.483 627.437 618.136 628.06 617.636 628.594C617.142 629.122 616.52 629.534 615.77 629.83C615.026 630.119 614.176 630.264 613.222 630.264ZM631.769 616.909L627.022 630H624.295L619.539 616.909H622.275L625.59 626.983H625.727L629.034 616.909H631.769ZM638.641 630.264C637.351 630.264 636.24 629.989 635.309 629.438C634.383 628.881 633.667 628.099 633.161 627.094C632.661 626.082 632.411 624.898 632.411 623.54C632.411 622.199 632.661 621.017 633.161 619.994C633.667 618.972 634.371 618.173 635.275 617.599C636.184 617.026 637.246 616.739 638.462 616.739C639.201 616.739 639.917 616.861 640.61 617.105C641.303 617.349 641.925 617.733 642.476 618.256C643.027 618.778 643.462 619.457 643.78 620.293C644.098 621.122 644.258 622.131 644.258 623.318V624.222H633.851V622.312H641.76C641.76 621.642 641.624 621.048 641.351 620.531C641.079 620.009 640.695 619.597 640.201 619.295C639.712 618.994 639.138 618.844 638.479 618.844C637.763 618.844 637.138 619.02 636.604 619.372C636.076 619.719 635.667 620.173 635.377 620.736C635.093 621.293 634.951 621.898 634.951 622.551V624.043C634.951 624.918 635.104 625.662 635.411 626.276C635.723 626.889 636.158 627.358 636.715 627.682C637.272 628 637.922 628.159 638.667 628.159C639.15 628.159 639.59 628.091 639.988 627.955C640.385 627.812 640.729 627.602 641.019 627.324C641.309 627.045 641.53 626.702 641.684 626.293L644.096 626.727C643.902 627.437 643.556 628.06 643.056 628.594C642.562 629.122 641.939 629.534 641.189 629.83C640.445 630.119 639.596 630.264 638.641 630.264ZM651.997 630V616.909H654.545V630H651.997ZM653.283 614.889C652.84 614.889 652.46 614.741 652.141 614.446C651.829 614.145 651.673 613.787 651.673 613.372C651.673 612.952 651.829 612.594 652.141 612.298C652.46 611.997 652.84 611.847 653.283 611.847C653.727 611.847 654.104 611.997 654.417 612.298C654.735 612.594 654.894 612.952 654.894 613.372C654.894 613.787 654.735 614.145 654.417 614.446C654.104 614.741 653.727 614.889 653.283 614.889ZM663.364 616.909V618.955H656.213V616.909H663.364ZM658.131 613.773H660.679V626.156C660.679 626.651 660.753 627.023 660.901 627.273C661.049 627.517 661.239 627.685 661.472 627.776C661.71 627.861 661.969 627.903 662.247 627.903C662.452 627.903 662.631 627.889 662.784 627.861C662.938 627.832 663.057 627.81 663.142 627.793L663.602 629.898C663.455 629.955 663.245 630.011 662.972 630.068C662.699 630.131 662.358 630.165 661.949 630.17C661.279 630.182 660.654 630.062 660.074 629.812C659.495 629.562 659.026 629.176 658.668 628.653C658.31 628.131 658.131 627.474 658.131 626.685V613.773ZM680.904 620.105L678.594 620.514C678.498 620.219 678.344 619.937 678.134 619.67C677.93 619.403 677.651 619.185 677.299 619.014C676.947 618.844 676.506 618.759 675.978 618.759C675.256 618.759 674.654 618.92 674.171 619.244C673.688 619.562 673.447 619.974 673.447 620.48C673.447 620.918 673.608 621.27 673.932 621.537C674.256 621.804 674.779 622.023 675.501 622.193L677.58 622.67C678.785 622.949 679.682 623.378 680.273 623.957C680.864 624.537 681.16 625.29 681.16 626.216C681.16 627 680.932 627.699 680.478 628.312C680.029 628.92 679.401 629.398 678.594 629.744C677.793 630.091 676.864 630.264 675.807 630.264C674.341 630.264 673.145 629.952 672.219 629.327C671.293 628.696 670.725 627.801 670.515 626.642L672.978 626.267C673.131 626.909 673.447 627.395 673.924 627.724C674.401 628.048 675.023 628.21 675.79 628.21C676.626 628.21 677.293 628.037 677.793 627.69C678.293 627.338 678.543 626.909 678.543 626.403C678.543 625.994 678.39 625.651 678.083 625.372C677.782 625.094 677.319 624.884 676.694 624.741L674.478 624.256C673.256 623.977 672.353 623.534 671.768 622.926C671.188 622.318 670.898 621.548 670.898 620.616C670.898 619.844 671.114 619.168 671.546 618.588C671.978 618.009 672.574 617.557 673.336 617.233C674.097 616.903 674.969 616.739 675.952 616.739C677.367 616.739 678.481 617.045 679.293 617.659C680.106 618.267 680.643 619.082 680.904 620.105ZM685.79 622.227V630H683.242V612.545H685.756V619.04H685.918C686.224 618.335 686.693 617.776 687.324 617.361C687.955 616.946 688.778 616.739 689.795 616.739C690.693 616.739 691.477 616.923 692.148 617.293C692.824 617.662 693.347 618.213 693.716 618.946C694.091 619.673 694.278 620.582 694.278 621.673V630H691.73V621.98C691.73 621.02 691.483 620.276 690.989 619.747C690.494 619.213 689.807 618.946 688.926 618.946C688.324 618.946 687.784 619.074 687.307 619.33C686.835 619.585 686.463 619.96 686.19 620.455C685.923 620.943 685.79 621.534 685.79 622.227ZM702.473 630.264C701.246 630.264 700.175 629.983 699.26 629.42C698.345 628.858 697.635 628.071 697.129 627.06C696.624 626.048 696.371 624.866 696.371 623.514C696.371 622.156 696.624 620.969 697.129 619.952C697.635 618.935 698.345 618.145 699.26 617.582C700.175 617.02 701.246 616.739 702.473 616.739C703.7 616.739 704.772 617.02 705.686 617.582C706.601 618.145 707.311 618.935 707.817 619.952C708.323 620.969 708.575 622.156 708.575 623.514C708.575 624.866 708.323 626.048 707.817 627.06C707.311 628.071 706.601 628.858 705.686 629.42C704.772 629.983 703.7 630.264 702.473 630.264ZM702.482 628.125C703.277 628.125 703.936 627.915 704.459 627.494C704.982 627.074 705.368 626.514 705.618 625.815C705.874 625.116 706.002 624.347 706.002 623.506C706.002 622.67 705.874 621.903 705.618 621.205C705.368 620.5 704.982 619.935 704.459 619.509C703.936 619.082 703.277 618.869 702.482 618.869C701.681 618.869 701.016 619.082 700.487 619.509C699.965 619.935 699.575 620.5 699.32 621.205C699.07 621.903 698.945 622.67 698.945 623.506C698.945 624.347 699.07 625.116 699.32 625.815C699.575 626.514 699.965 627.074 700.487 627.494C701.016 627.915 701.681 628.125 702.482 628.125ZM718.993 624.571V616.909H721.549V630H719.044V627.733H718.907C718.606 628.432 718.123 629.014 717.458 629.48C716.799 629.94 715.978 630.17 714.995 630.17C714.154 630.17 713.41 629.986 712.762 629.616C712.12 629.241 711.615 628.688 711.245 627.955C710.882 627.222 710.7 626.315 710.7 625.236V616.909H713.248V624.929C713.248 625.821 713.495 626.531 713.99 627.06C714.484 627.588 715.126 627.852 715.916 627.852C716.393 627.852 716.868 627.733 717.339 627.494C717.816 627.256 718.211 626.895 718.524 626.412C718.842 625.929 718.998 625.315 718.993 624.571ZM726.802 612.545V630H724.253V612.545H726.802ZM734.411 630.256C733.354 630.256 732.411 629.986 731.581 629.446C730.757 628.901 730.109 628.125 729.638 627.119C729.172 626.108 728.939 624.895 728.939 623.48C728.939 622.065 729.175 620.855 729.646 619.849C730.124 618.844 730.777 618.074 731.607 617.54C732.436 617.006 733.376 616.739 734.428 616.739C735.24 616.739 735.893 616.875 736.388 617.148C736.888 617.415 737.274 617.727 737.547 618.085C737.825 618.443 738.041 618.759 738.195 619.031H738.348V612.545H740.896V630H738.408V627.963H738.195C738.041 628.241 737.82 628.56 737.53 628.918C737.246 629.276 736.854 629.588 736.354 629.855C735.854 630.122 735.206 630.256 734.411 630.256ZM734.973 628.082C735.706 628.082 736.325 627.889 736.831 627.503C737.342 627.111 737.729 626.568 737.99 625.875C738.257 625.182 738.391 624.375 738.391 623.455C738.391 622.545 738.26 621.75 737.999 621.068C737.737 620.386 737.354 619.855 736.848 619.474C736.342 619.094 735.717 618.903 734.973 618.903C734.206 618.903 733.567 619.102 733.055 619.5C732.544 619.898 732.158 620.44 731.896 621.128C731.641 621.815 731.513 622.591 731.513 623.455C731.513 624.33 731.643 625.116 731.905 625.815C732.166 626.514 732.553 627.068 733.064 627.477C733.581 627.881 734.217 628.082 734.973 628.082ZM749.649 630V612.545H752.198V619.031H752.351C752.499 618.759 752.712 618.443 752.99 618.085C753.269 617.727 753.655 617.415 754.149 617.148C754.644 616.875 755.297 616.739 756.11 616.739C757.167 616.739 758.11 617.006 758.939 617.54C759.769 618.074 760.419 618.844 760.891 619.849C761.368 620.855 761.607 622.065 761.607 623.48C761.607 624.895 761.371 626.108 760.899 627.119C760.428 628.125 759.78 628.901 758.956 629.446C758.132 629.986 757.192 630.256 756.135 630.256C755.34 630.256 754.689 630.122 754.184 629.855C753.684 629.588 753.292 629.276 753.007 628.918C752.723 628.56 752.505 628.241 752.351 627.963H752.138V630H749.649ZM752.147 623.455C752.147 624.375 752.28 625.182 752.547 625.875C752.814 626.568 753.201 627.111 753.706 627.503C754.212 627.889 754.831 628.082 755.564 628.082C756.326 628.082 756.962 627.881 757.473 627.477C757.985 627.068 758.371 626.514 758.632 625.815C758.899 625.116 759.033 624.33 759.033 623.455C759.033 622.591 758.902 621.815 758.641 621.128C758.385 620.44 757.999 619.898 757.482 619.5C756.971 619.102 756.331 618.903 755.564 618.903C754.826 618.903 754.201 619.094 753.689 619.474C753.184 619.855 752.8 620.386 752.539 621.068C752.277 621.75 752.147 622.545 752.147 623.455ZM769.39 630.264C768.101 630.264 766.99 629.989 766.058 629.438C765.132 628.881 764.416 628.099 763.91 627.094C763.41 626.082 763.16 624.898 763.16 623.54C763.16 622.199 763.41 621.017 763.91 619.994C764.416 618.972 765.121 618.173 766.024 617.599C766.933 617.026 767.996 616.739 769.211 616.739C769.95 616.739 770.666 616.861 771.359 617.105C772.052 617.349 772.675 617.733 773.226 618.256C773.777 618.778 774.211 619.457 774.53 620.293C774.848 621.122 775.007 622.131 775.007 623.318V624.222H764.601V622.312H772.51C772.51 621.642 772.373 621.048 772.101 620.531C771.828 620.009 771.444 619.597 770.95 619.295C770.461 618.994 769.888 618.844 769.228 618.844C768.513 618.844 767.888 619.02 767.353 619.372C766.825 619.719 766.416 620.173 766.126 620.736C765.842 621.293 765.7 621.898 765.7 622.551V624.043C765.7 624.918 765.853 625.662 766.16 626.276C766.473 626.889 766.907 627.358 767.464 627.682C768.021 628 768.672 628.159 769.416 628.159C769.899 628.159 770.339 628.091 770.737 627.955C771.135 627.812 771.478 627.602 771.768 627.324C772.058 627.045 772.28 626.702 772.433 626.293L774.845 626.727C774.652 627.437 774.305 628.06 773.805 628.594C773.311 629.122 772.689 629.534 771.939 629.83C771.194 630.119 770.345 630.264 769.39 630.264ZM788.26 630.264C786.993 630.264 785.902 629.977 784.987 629.403C784.078 628.824 783.379 628.026 782.891 627.009C782.402 625.991 782.158 624.827 782.158 623.514C782.158 622.185 782.408 621.011 782.908 619.994C783.408 618.972 784.112 618.173 785.021 617.599C785.931 617.026 787.002 616.739 788.235 616.739C789.229 616.739 790.115 616.923 790.894 617.293C791.672 617.656 792.3 618.168 792.777 618.827C793.26 619.486 793.547 620.256 793.638 621.136H791.158C791.021 620.523 790.709 619.994 790.22 619.551C789.737 619.108 789.09 618.886 788.277 618.886C787.567 618.886 786.945 619.074 786.411 619.449C785.882 619.818 785.47 620.347 785.175 621.034C784.879 621.716 784.732 622.523 784.732 623.455C784.732 624.409 784.877 625.233 785.166 625.926C785.456 626.619 785.865 627.156 786.394 627.537C786.928 627.918 787.556 628.108 788.277 628.108C788.76 628.108 789.198 628.02 789.59 627.844C789.987 627.662 790.32 627.403 790.587 627.068C790.86 626.733 791.05 626.33 791.158 625.858H793.638C793.547 626.705 793.271 627.46 792.811 628.125C792.351 628.79 791.735 629.312 790.962 629.693C790.195 630.074 789.294 630.264 788.26 630.264ZM801.157 630.264C799.93 630.264 798.859 629.983 797.944 629.42C797.029 628.858 796.319 628.071 795.814 627.06C795.308 626.048 795.055 624.866 795.055 623.514C795.055 622.156 795.308 620.969 795.814 619.952C796.319 618.935 797.029 618.145 797.944 617.582C798.859 617.02 799.93 616.739 801.157 616.739C802.385 616.739 803.456 617.02 804.37 617.582C805.285 618.145 805.995 618.935 806.501 619.952C807.007 620.969 807.26 622.156 807.26 623.514C807.26 624.866 807.007 626.048 806.501 627.06C805.995 628.071 805.285 628.858 804.37 629.42C803.456 629.983 802.385 630.264 801.157 630.264ZM801.166 628.125C801.961 628.125 802.62 627.915 803.143 627.494C803.666 627.074 804.052 626.514 804.302 625.815C804.558 625.116 804.686 624.347 804.686 623.506C804.686 622.67 804.558 621.903 804.302 621.205C804.052 620.5 803.666 619.935 803.143 619.509C802.62 619.082 801.961 618.869 801.166 618.869C800.365 618.869 799.7 619.082 799.171 619.509C798.649 619.935 798.26 620.5 798.004 621.205C797.754 621.903 797.629 622.67 797.629 623.506C797.629 624.347 797.754 625.116 798.004 625.815C798.26 626.514 798.649 627.074 799.171 627.494C799.7 627.915 800.365 628.125 801.166 628.125ZM811.932 612.545V630H809.384V612.545H811.932ZM817.189 612.545V630H814.641V612.545H817.189ZM823.707 630.29C822.877 630.29 822.127 630.136 821.457 629.83C820.786 629.517 820.255 629.065 819.863 628.474C819.477 627.884 819.283 627.159 819.283 626.301C819.283 625.562 819.426 624.955 819.71 624.477C819.994 624 820.377 623.622 820.86 623.344C821.343 623.065 821.883 622.855 822.48 622.713C823.076 622.571 823.684 622.463 824.303 622.389C825.087 622.298 825.724 622.224 826.212 622.168C826.701 622.105 827.056 622.006 827.278 621.869C827.499 621.733 827.61 621.511 827.61 621.205V621.145C827.61 620.401 827.4 619.824 826.98 619.415C826.565 619.006 825.945 618.801 825.122 618.801C824.264 618.801 823.587 618.991 823.093 619.372C822.605 619.747 822.266 620.165 822.079 620.625L819.684 620.08C819.968 619.284 820.383 618.642 820.928 618.153C821.48 617.659 822.113 617.301 822.829 617.08C823.545 616.852 824.298 616.739 825.087 616.739C825.61 616.739 826.164 616.801 826.749 616.926C827.34 617.045 827.891 617.267 828.403 617.591C828.92 617.915 829.343 618.378 829.673 618.98C830.002 619.577 830.167 620.352 830.167 621.307V630H827.678V628.21H827.576C827.411 628.54 827.164 628.864 826.835 629.182C826.505 629.5 826.082 629.764 825.565 629.974C825.048 630.185 824.428 630.29 823.707 630.29ZM824.261 628.244C824.965 628.244 825.568 628.105 826.068 627.827C826.573 627.548 826.957 627.185 827.218 626.736C827.485 626.281 827.619 625.795 827.619 625.278V623.591C827.528 623.682 827.352 623.767 827.09 623.847C826.835 623.92 826.542 623.986 826.212 624.043C825.883 624.094 825.562 624.142 825.249 624.188C824.937 624.227 824.676 624.261 824.465 624.29C823.971 624.352 823.519 624.457 823.11 624.605C822.707 624.753 822.383 624.966 822.139 625.244C821.9 625.517 821.781 625.881 821.781 626.335C821.781 626.966 822.014 627.443 822.48 627.767C822.945 628.085 823.539 628.244 824.261 628.244ZM833.046 630V612.545H835.594V619.031H835.747C835.895 618.759 836.108 618.443 836.387 618.085C836.665 617.727 837.051 617.415 837.546 617.148C838.04 616.875 838.693 616.739 839.506 616.739C840.563 616.739 841.506 617.006 842.335 617.54C843.165 618.074 843.816 618.844 844.287 619.849C844.764 620.855 845.003 622.065 845.003 623.48C845.003 624.895 844.767 626.108 844.296 627.119C843.824 628.125 843.176 628.901 842.353 629.446C841.529 629.986 840.588 630.256 839.532 630.256C838.736 630.256 838.085 630.122 837.58 629.855C837.08 629.588 836.688 629.276 836.404 628.918C836.12 628.56 835.901 628.241 835.747 627.963H835.534V630H833.046ZM835.543 623.455C835.543 624.375 835.676 625.182 835.943 625.875C836.21 626.568 836.597 627.111 837.103 627.503C837.608 627.889 838.228 628.082 838.96 628.082C839.722 628.082 840.358 627.881 840.87 627.477C841.381 627.068 841.767 626.514 842.029 625.815C842.296 625.116 842.429 624.33 842.429 623.455C842.429 622.591 842.299 621.815 842.037 621.128C841.782 620.44 841.395 619.898 840.878 619.5C840.367 619.102 839.728 618.903 838.96 618.903C838.222 618.903 837.597 619.094 837.085 619.474C836.58 619.855 836.196 620.386 835.935 621.068C835.674 621.75 835.543 622.545 835.543 623.455ZM852.659 630.264C851.432 630.264 850.361 629.983 849.446 629.42C848.531 628.858 847.821 628.071 847.315 627.06C846.809 626.048 846.557 624.866 846.557 623.514C846.557 622.156 846.809 620.969 847.315 619.952C847.821 618.935 848.531 618.145 849.446 617.582C850.361 617.02 851.432 616.739 852.659 616.739C853.886 616.739 854.957 617.02 855.872 617.582C856.787 618.145 857.497 618.935 858.003 619.952C858.508 620.969 858.761 622.156 858.761 623.514C858.761 624.866 858.508 626.048 858.003 627.06C857.497 628.071 856.787 628.858 855.872 629.42C854.957 629.983 853.886 630.264 852.659 630.264ZM852.667 628.125C853.463 628.125 854.122 627.915 854.645 627.494C855.167 627.074 855.554 626.514 855.804 625.815C856.059 625.116 856.187 624.347 856.187 623.506C856.187 622.67 856.059 621.903 855.804 621.205C855.554 620.5 855.167 619.935 854.645 619.509C854.122 619.082 853.463 618.869 852.667 618.869C851.866 618.869 851.201 619.082 850.673 619.509C850.15 619.935 849.761 620.5 849.505 621.205C849.255 621.903 849.13 622.67 849.13 623.506C849.13 624.347 849.255 625.116 849.505 625.815C849.761 626.514 850.15 627.074 850.673 627.494C851.201 627.915 851.866 628.125 852.667 628.125ZM860.886 630V616.909H863.349V618.989H863.485C863.724 618.284 864.144 617.73 864.746 617.327C865.354 616.918 866.042 616.713 866.809 616.713C866.968 616.713 867.155 616.719 867.371 616.73C867.593 616.741 867.766 616.756 867.891 616.773V619.21C867.789 619.182 867.607 619.151 867.346 619.116C867.084 619.077 866.823 619.057 866.562 619.057C865.959 619.057 865.422 619.185 864.951 619.44C864.485 619.69 864.116 620.04 863.843 620.489C863.57 620.932 863.434 621.437 863.434 622.006V630H860.886ZM873.069 630.29C872.239 630.29 871.489 630.136 870.819 629.83C870.149 629.517 869.617 629.065 869.225 628.474C868.839 627.884 868.646 627.159 868.646 626.301C868.646 625.562 868.788 624.955 869.072 624.477C869.356 624 869.739 623.622 870.222 623.344C870.705 623.065 871.245 622.855 871.842 622.713C872.438 622.571 873.046 622.463 873.666 622.389C874.45 622.298 875.086 622.224 875.575 622.168C876.063 622.105 876.418 622.006 876.64 621.869C876.862 621.733 876.972 621.511 876.972 621.205V621.145C876.972 620.401 876.762 619.824 876.342 619.415C875.927 619.006 875.308 618.801 874.484 618.801C873.626 618.801 872.95 618.991 872.455 619.372C871.967 619.747 871.629 620.165 871.441 620.625L869.046 620.08C869.33 619.284 869.745 618.642 870.291 618.153C870.842 617.659 871.475 617.301 872.191 617.08C872.907 616.852 873.66 616.739 874.45 616.739C874.972 616.739 875.526 616.801 876.112 616.926C876.702 617.045 877.254 617.267 877.765 617.591C878.282 617.915 878.705 618.378 879.035 618.98C879.364 619.577 879.529 620.352 879.529 621.307V630H877.041V628.21H876.938C876.774 628.54 876.526 628.864 876.197 629.182C875.867 629.5 875.444 629.764 874.927 629.974C874.41 630.185 873.791 630.29 873.069 630.29ZM873.623 628.244C874.327 628.244 874.93 628.105 875.43 627.827C875.935 627.548 876.319 627.185 876.58 626.736C876.847 626.281 876.981 625.795 876.981 625.278V623.591C876.89 623.682 876.714 623.767 876.452 623.847C876.197 623.92 875.904 623.986 875.575 624.043C875.245 624.094 874.924 624.142 874.612 624.188C874.299 624.227 874.038 624.261 873.827 624.29C873.333 624.352 872.881 624.457 872.472 624.605C872.069 624.753 871.745 624.966 871.501 625.244C871.262 625.517 871.143 625.881 871.143 626.335C871.143 626.966 871.376 627.443 871.842 627.767C872.308 628.085 872.901 628.244 873.623 628.244ZM888.314 616.909V618.955H881.164V616.909H888.314ZM883.081 613.773H885.63V626.156C885.63 626.651 885.703 627.023 885.851 627.273C885.999 627.517 886.189 627.685 886.422 627.776C886.661 627.861 886.919 627.903 887.198 627.903C887.402 627.903 887.581 627.889 887.735 627.861C887.888 627.832 888.007 627.81 888.093 627.793L888.553 629.898C888.405 629.955 888.195 630.011 887.922 630.068C887.649 630.131 887.308 630.165 886.899 630.17C886.229 630.182 885.604 630.062 885.024 629.812C884.445 629.562 883.976 629.176 883.618 628.653C883.26 628.131 883.081 627.474 883.081 626.685V613.773ZM890.413 630V616.909H892.961V630H890.413ZM891.7 614.889C891.257 614.889 890.876 614.741 890.558 614.446C890.245 614.145 890.089 613.787 890.089 613.372C890.089 612.952 890.245 612.594 890.558 612.298C890.876 611.997 891.257 611.847 891.7 611.847C892.143 611.847 892.521 611.997 892.833 612.298C893.152 612.594 893.311 612.952 893.311 613.372C893.311 613.787 893.152 614.145 892.833 614.446C892.521 614.741 892.143 614.889 891.7 614.889ZM906.868 616.909L902.121 630H899.394L894.638 616.909H897.374L900.689 626.983H900.826L904.133 616.909H906.868ZM913.74 630.264C912.45 630.264 911.34 629.989 910.408 629.438C909.482 628.881 908.766 628.099 908.26 627.094C907.76 626.082 907.51 624.898 907.51 623.54C907.51 622.199 907.76 621.017 908.26 619.994C908.766 618.972 909.47 618.173 910.374 617.599C911.283 617.026 912.345 616.739 913.561 616.739C914.3 616.739 915.016 616.861 915.709 617.105C916.402 617.349 917.024 617.733 917.575 618.256C918.126 618.778 918.561 619.457 918.879 620.293C919.198 621.122 919.357 622.131 919.357 623.318V624.222H908.95V622.312H916.859C916.859 621.642 916.723 621.048 916.45 620.531C916.178 620.009 915.794 619.597 915.3 619.295C914.811 618.994 914.237 618.844 913.578 618.844C912.862 618.844 912.237 619.02 911.703 619.372C911.175 619.719 910.766 620.173 910.476 620.736C910.192 621.293 910.05 621.898 910.05 622.551V624.043C910.05 624.918 910.203 625.662 910.51 626.276C910.823 626.889 911.257 627.358 911.814 627.682C912.371 628 913.021 628.159 913.766 628.159C914.249 628.159 914.689 628.091 915.087 627.955C915.484 627.812 915.828 627.602 916.118 627.324C916.408 627.045 916.629 626.702 916.783 626.293L919.195 626.727C919.001 627.437 918.655 628.06 918.155 628.594C917.661 629.122 917.038 629.534 916.288 629.83C915.544 630.119 914.695 630.264 913.74 630.264ZM924.779 627.614L924.652 628.543C924.566 629.224 924.421 629.935 924.217 630.673C924.018 631.418 923.811 632.108 923.595 632.744C923.384 633.381 923.211 633.886 923.075 634.261H921.268C921.342 633.909 921.444 633.432 921.575 632.83C921.706 632.233 921.833 631.565 921.958 630.827C922.083 630.088 922.177 629.335 922.24 628.568L922.325 627.614H924.779ZM939.119 616.909V618.955H931.969V616.909H939.119ZM933.886 613.773H936.434V626.156C936.434 626.651 936.508 627.023 936.656 627.273C936.804 627.517 936.994 627.685 937.227 627.776C937.466 627.861 937.724 627.903 938.003 627.903C938.207 627.903 938.386 627.889 938.54 627.861C938.693 627.832 938.812 627.81 938.898 627.793L939.358 629.898C939.21 629.955 939 630.011 938.727 630.068C938.454 630.131 938.113 630.165 937.704 630.17C937.034 630.182 936.409 630.062 935.829 629.812C935.25 629.562 934.781 629.176 934.423 628.653C934.065 628.131 933.886 627.474 933.886 626.685V613.773ZM946.592 630.264C945.364 630.264 944.293 629.983 943.379 629.42C942.464 628.858 941.754 628.071 941.248 627.06C940.742 626.048 940.489 624.866 940.489 623.514C940.489 622.156 940.742 620.969 941.248 619.952C941.754 618.935 942.464 618.145 943.379 617.582C944.293 617.02 945.364 616.739 946.592 616.739C947.819 616.739 948.89 617.02 949.805 617.582C950.719 618.145 951.43 618.935 951.935 619.952C952.441 620.969 952.694 622.156 952.694 623.514C952.694 624.866 952.441 626.048 951.935 627.06C951.43 628.071 950.719 628.858 949.805 629.42C948.89 629.983 947.819 630.264 946.592 630.264ZM946.6 628.125C947.396 628.125 948.055 627.915 948.577 627.494C949.1 627.074 949.487 626.514 949.737 625.815C949.992 625.116 950.12 624.347 950.12 623.506C950.12 622.67 949.992 621.903 949.737 621.205C949.487 620.5 949.1 619.935 948.577 619.509C948.055 619.082 947.396 618.869 946.6 618.869C945.799 618.869 945.134 619.082 944.606 619.509C944.083 619.935 943.694 620.5 943.438 621.205C943.188 621.903 943.063 622.67 943.063 623.506C943.063 624.347 943.188 625.116 943.438 625.815C943.694 626.514 944.083 627.074 944.606 627.494C945.134 627.915 945.799 628.125 946.6 628.125ZM960.333 630.264C959.105 630.264 958.034 629.983 957.12 629.42C956.205 628.858 955.495 628.071 954.989 627.06C954.483 626.048 954.23 624.866 954.23 623.514C954.23 622.156 954.483 620.969 954.989 619.952C955.495 618.935 956.205 618.145 957.12 617.582C958.034 617.02 959.105 616.739 960.333 616.739C961.56 616.739 962.631 617.02 963.546 617.582C964.46 618.145 965.171 618.935 965.676 619.952C966.182 620.969 966.435 622.156 966.435 623.514C966.435 624.866 966.182 626.048 965.676 627.06C965.171 628.071 964.46 628.858 963.546 629.42C962.631 629.983 961.56 630.264 960.333 630.264ZM960.341 628.125C961.137 628.125 961.796 627.915 962.318 627.494C962.841 627.074 963.228 626.514 963.478 625.815C963.733 625.116 963.861 624.347 963.861 623.506C963.861 622.67 963.733 621.903 963.478 621.205C963.228 620.5 962.841 619.935 962.318 619.509C961.796 619.082 961.137 618.869 960.341 618.869C959.54 618.869 958.875 619.082 958.347 619.509C957.824 619.935 957.435 620.5 957.179 621.205C956.929 621.903 956.804 622.67 956.804 623.506C956.804 624.347 956.929 625.116 957.179 625.815C957.435 626.514 957.824 627.074 958.347 627.494C958.875 627.915 959.54 628.125 960.341 628.125ZM970.238 630.162C969.772 630.162 969.372 629.997 969.037 629.668C968.701 629.332 968.534 628.929 968.534 628.457C968.534 627.991 968.701 627.594 969.037 627.264C969.372 626.929 969.772 626.761 970.238 626.761C970.704 626.761 971.105 626.929 971.44 627.264C971.775 627.594 971.943 627.991 971.943 628.457C971.943 628.77 971.863 629.057 971.704 629.318C971.551 629.574 971.346 629.778 971.091 629.932C970.835 630.085 970.551 630.162 970.238 630.162ZM379.851 669.545H382.476V681.92C382.476 683.04 382.254 683.997 381.811 684.793C381.374 685.588 380.757 686.196 379.962 686.616C379.166 687.031 378.235 687.239 377.166 687.239C376.183 687.239 375.3 687.06 374.516 686.702C373.737 686.344 373.121 685.824 372.666 685.142C372.218 684.455 371.993 683.619 371.993 682.636H374.61C374.61 683.119 374.72 683.537 374.942 683.889C375.169 684.241 375.479 684.517 375.871 684.716C376.269 684.909 376.723 685.006 377.235 685.006C377.791 685.006 378.263 684.889 378.649 684.656C379.041 684.418 379.34 684.068 379.544 683.608C379.749 683.148 379.851 682.585 379.851 681.92V669.545ZM390.899 687.264C389.672 687.264 388.601 686.983 387.686 686.42C386.771 685.858 386.061 685.071 385.555 684.06C385.049 683.048 384.797 681.866 384.797 680.514C384.797 679.156 385.049 677.969 385.555 676.952C386.061 675.935 386.771 675.145 387.686 674.582C388.601 674.02 389.672 673.739 390.899 673.739C392.126 673.739 393.197 674.02 394.112 674.582C395.027 675.145 395.737 675.935 396.243 676.952C396.748 677.969 397.001 679.156 397.001 680.514C397.001 681.866 396.748 683.048 396.243 684.06C395.737 685.071 395.027 685.858 394.112 686.42C393.197 686.983 392.126 687.264 390.899 687.264ZM390.907 685.125C391.703 685.125 392.362 684.915 392.885 684.494C393.407 684.074 393.794 683.514 394.044 682.815C394.299 682.116 394.427 681.347 394.427 680.506C394.427 679.67 394.299 678.903 394.044 678.205C393.794 677.5 393.407 676.935 392.885 676.509C392.362 676.082 391.703 675.869 390.907 675.869C390.106 675.869 389.441 676.082 388.913 676.509C388.39 676.935 388.001 677.5 387.745 678.205C387.495 678.903 387.37 679.67 387.37 680.506C387.37 681.347 387.495 682.116 387.745 682.815C388.001 683.514 388.39 684.074 388.913 684.494C389.441 684.915 390.106 685.125 390.907 685.125ZM399.126 687V673.909H401.674V687H399.126ZM400.413 671.889C399.969 671.889 399.589 671.741 399.27 671.446C398.958 671.145 398.802 670.787 398.802 670.372C398.802 669.952 398.958 669.594 399.27 669.298C399.589 668.997 399.969 668.847 400.413 668.847C400.856 668.847 401.234 668.997 401.546 669.298C401.864 669.594 402.023 669.952 402.023 670.372C402.023 670.787 401.864 671.145 401.546 671.446C401.234 671.741 400.856 671.889 400.413 671.889ZM406.93 679.227V687H404.382V673.909H406.828V676.04H406.99C407.291 675.347 407.763 674.79 408.405 674.369C409.053 673.949 409.868 673.739 410.851 673.739C411.743 673.739 412.524 673.926 413.195 674.301C413.865 674.67 414.385 675.222 414.754 675.955C415.124 676.687 415.308 677.594 415.308 678.673V687H412.76V678.98C412.76 678.031 412.513 677.29 412.019 676.756C411.524 676.216 410.845 675.946 409.982 675.946C409.391 675.946 408.865 676.074 408.405 676.33C407.95 676.585 407.59 676.96 407.322 677.455C407.061 677.943 406.93 678.534 406.93 679.227ZM431.93 681.571V673.909H434.487V687H431.981V684.733H431.845C431.544 685.432 431.061 686.014 430.396 686.48C429.737 686.94 428.916 687.17 427.933 687.17C427.092 687.17 426.348 686.986 425.7 686.616C425.058 686.241 424.552 685.688 424.183 684.955C423.819 684.222 423.637 683.315 423.637 682.236V673.909H426.186V681.929C426.186 682.821 426.433 683.531 426.927 684.06C427.422 684.588 428.064 684.852 428.853 684.852C429.331 684.852 429.805 684.733 430.277 684.494C430.754 684.256 431.149 683.895 431.461 683.412C431.779 682.929 431.936 682.315 431.93 681.571ZM447.001 677.105L444.691 677.514C444.594 677.219 444.441 676.937 444.231 676.67C444.026 676.403 443.748 676.185 443.395 676.014C443.043 675.844 442.603 675.759 442.074 675.759C441.353 675.759 440.751 675.92 440.268 676.244C439.785 676.562 439.543 676.974 439.543 677.48C439.543 677.918 439.705 678.27 440.029 678.537C440.353 678.804 440.876 679.023 441.597 679.193L443.677 679.67C444.881 679.949 445.779 680.378 446.37 680.957C446.961 681.537 447.256 682.29 447.256 683.216C447.256 684 447.029 684.699 446.574 685.312C446.126 685.92 445.498 686.398 444.691 686.744C443.89 687.091 442.961 687.264 441.904 687.264C440.438 687.264 439.242 686.952 438.316 686.327C437.39 685.696 436.822 684.801 436.611 683.642L439.074 683.267C439.228 683.909 439.543 684.395 440.02 684.724C440.498 685.048 441.12 685.21 441.887 685.21C442.722 685.21 443.39 685.037 443.89 684.69C444.39 684.338 444.64 683.909 444.64 683.403C444.64 682.994 444.486 682.651 444.18 682.372C443.878 682.094 443.415 681.884 442.79 681.741L440.574 681.256C439.353 680.977 438.449 680.534 437.864 679.926C437.285 679.318 436.995 678.548 436.995 677.616C436.995 676.844 437.211 676.168 437.643 675.588C438.074 675.009 438.671 674.557 439.432 674.233C440.194 673.903 441.066 673.739 442.049 673.739C443.464 673.739 444.577 674.045 445.39 674.659C446.202 675.267 446.739 676.082 447.001 677.105ZM460.484 687.264C459.257 687.264 458.186 686.983 457.271 686.42C456.356 685.858 455.646 685.071 455.14 684.06C454.634 683.048 454.382 681.866 454.382 680.514C454.382 679.156 454.634 677.969 455.14 676.952C455.646 675.935 456.356 675.145 457.271 674.582C458.186 674.02 459.257 673.739 460.484 673.739C461.711 673.739 462.782 674.02 463.697 674.582C464.612 675.145 465.322 675.935 465.828 676.952C466.333 677.969 466.586 679.156 466.586 680.514C466.586 681.866 466.333 683.048 465.828 684.06C465.322 685.071 464.612 685.858 463.697 686.42C462.782 686.983 461.711 687.264 460.484 687.264ZM460.492 685.125C461.288 685.125 461.947 684.915 462.47 684.494C462.992 684.074 463.379 683.514 463.629 682.815C463.884 682.116 464.012 681.347 464.012 680.506C464.012 679.67 463.884 678.903 463.629 678.205C463.379 677.5 462.992 676.935 462.47 676.509C461.947 676.082 461.288 675.869 460.492 675.869C459.691 675.869 459.026 676.082 458.498 676.509C457.975 676.935 457.586 677.5 457.33 678.205C457.08 678.903 456.955 679.67 456.955 680.506C456.955 681.347 457.08 682.116 457.33 682.815C457.586 683.514 457.975 684.074 458.498 684.494C459.026 684.915 459.691 685.125 460.492 685.125ZM471.259 679.227V687H468.711V673.909H471.157V676.04H471.319C471.62 675.347 472.091 674.79 472.733 674.369C473.381 673.949 474.196 673.739 475.179 673.739C476.071 673.739 476.853 673.926 477.523 674.301C478.194 674.67 478.713 675.222 479.083 675.955C479.452 676.687 479.637 677.594 479.637 678.673V687H477.088V678.98C477.088 678.031 476.841 677.29 476.347 676.756C475.853 676.216 475.174 675.946 474.31 675.946C473.719 675.946 473.194 676.074 472.733 676.33C472.279 676.585 471.918 676.96 471.651 677.455C471.39 677.943 471.259 678.534 471.259 679.227ZM493.48 687.264C492.253 687.264 491.182 686.983 490.267 686.42C489.352 685.858 488.642 685.071 488.136 684.06C487.631 683.048 487.378 681.866 487.378 680.514C487.378 679.156 487.631 677.969 488.136 676.952C488.642 675.935 489.352 675.145 490.267 674.582C491.182 674.02 492.253 673.739 493.48 673.739C494.707 673.739 495.778 674.02 496.693 674.582C497.608 675.145 498.318 675.935 498.824 676.952C499.33 677.969 499.582 679.156 499.582 680.514C499.582 681.866 499.33 683.048 498.824 684.06C498.318 685.071 497.608 685.858 496.693 686.42C495.778 686.983 494.707 687.264 493.48 687.264ZM493.489 685.125C494.284 685.125 494.943 684.915 495.466 684.494C495.989 684.074 496.375 683.514 496.625 682.815C496.881 682.116 497.009 681.347 497.009 680.506C497.009 679.67 496.881 678.903 496.625 678.205C496.375 677.5 495.989 676.935 495.466 676.509C494.943 676.082 494.284 675.869 493.489 675.869C492.687 675.869 492.023 676.082 491.494 676.509C490.972 676.935 490.582 677.5 490.327 678.205C490.077 678.903 489.952 679.67 489.952 680.506C489.952 681.347 490.077 682.116 490.327 682.815C490.582 683.514 490.972 684.074 491.494 684.494C492.023 684.915 492.687 685.125 493.489 685.125ZM509.999 681.571V673.909H512.556V687H510.051V684.733H509.914C509.613 685.432 509.13 686.014 508.465 686.48C507.806 686.94 506.985 687.17 506.002 687.17C505.161 687.17 504.417 686.986 503.769 686.616C503.127 686.241 502.622 685.688 502.252 684.955C501.889 684.222 501.707 683.315 501.707 682.236V673.909H504.255V681.929C504.255 682.821 504.502 683.531 504.997 684.06C505.491 684.588 506.133 684.852 506.923 684.852C507.4 684.852 507.874 684.733 508.346 684.494C508.823 684.256 509.218 683.895 509.531 683.412C509.849 682.929 510.005 682.315 509.999 681.571ZM515.26 687V673.909H517.723V675.989H517.86C518.098 675.284 518.519 674.73 519.121 674.327C519.729 673.918 520.417 673.713 521.184 673.713C521.343 673.713 521.53 673.719 521.746 673.73C521.968 673.741 522.141 673.756 522.266 673.773V676.21C522.164 676.182 521.982 676.151 521.72 676.116C521.459 676.077 521.198 676.057 520.936 676.057C520.334 676.057 519.797 676.185 519.326 676.44C518.86 676.69 518.49 677.04 518.218 677.489C517.945 677.932 517.809 678.437 517.809 679.006V687H515.26ZM529.383 687V673.909H531.829V676.04H531.991C532.263 675.318 532.709 674.756 533.329 674.352C533.948 673.943 534.69 673.739 535.553 673.739C536.428 673.739 537.161 673.943 537.752 674.352C538.349 674.761 538.789 675.324 539.073 676.04H539.209C539.522 675.341 540.019 674.784 540.701 674.369C541.383 673.949 542.195 673.739 543.138 673.739C544.326 673.739 545.295 674.111 546.045 674.855C546.8 675.599 547.178 676.722 547.178 678.222V687H544.63V678.46C544.63 677.574 544.388 676.932 543.905 676.534C543.423 676.136 542.846 675.938 542.175 675.938C541.346 675.938 540.701 676.193 540.241 676.705C539.78 677.21 539.55 677.861 539.55 678.656V687H537.011V678.298C537.011 677.588 536.789 677.017 536.346 676.585C535.903 676.153 535.326 675.938 534.616 675.938C534.133 675.938 533.687 676.065 533.278 676.321C532.874 676.571 532.548 676.92 532.298 677.369C532.053 677.818 531.931 678.338 531.931 678.929V687H529.383ZM549.874 687V673.909H552.422V687H549.874ZM551.161 671.889C550.717 671.889 550.337 671.741 550.019 671.446C549.706 671.145 549.55 670.787 549.55 670.372C549.55 669.952 549.706 669.594 550.019 669.298C550.337 668.997 550.717 668.847 551.161 668.847C551.604 668.847 551.982 668.997 552.294 669.298C552.612 669.594 552.771 669.952 552.771 670.372C552.771 670.787 552.612 671.145 552.294 671.446C551.982 671.741 551.604 671.889 551.161 671.889ZM564.94 677.105L562.63 677.514C562.534 677.219 562.38 676.937 562.17 676.67C561.965 676.403 561.687 676.185 561.335 676.014C560.983 675.844 560.542 675.759 560.014 675.759C559.292 675.759 558.69 675.92 558.207 676.244C557.724 676.562 557.483 676.974 557.483 677.48C557.483 677.918 557.644 678.27 557.968 678.537C558.292 678.804 558.815 679.023 559.537 679.193L561.616 679.67C562.821 679.949 563.718 680.378 564.309 680.957C564.9 681.537 565.196 682.29 565.196 683.216C565.196 684 564.968 684.699 564.514 685.312C564.065 685.92 563.437 686.398 562.63 686.744C561.829 687.091 560.9 687.264 559.843 687.264C558.377 687.264 557.181 686.952 556.255 686.327C555.329 685.696 554.761 684.801 554.551 683.642L557.014 683.267C557.167 683.909 557.483 684.395 557.96 684.724C558.437 685.048 559.059 685.21 559.826 685.21C560.662 685.21 561.329 685.037 561.829 684.69C562.329 684.338 562.579 683.909 562.579 683.403C562.579 682.994 562.426 682.651 562.119 682.372C561.818 682.094 561.355 681.884 560.73 681.741L558.514 681.256C557.292 680.977 556.389 680.534 555.804 679.926C555.224 679.318 554.934 678.548 554.934 677.616C554.934 676.844 555.15 676.168 555.582 675.588C556.014 675.009 556.61 674.557 557.372 674.233C558.133 673.903 559.005 673.739 559.988 673.739C561.403 673.739 562.517 674.045 563.329 674.659C564.142 675.267 564.679 676.082 564.94 677.105ZM577.087 677.105L574.777 677.514C574.681 677.219 574.527 676.937 574.317 676.67C574.113 676.403 573.834 676.185 573.482 676.014C573.13 675.844 572.689 675.759 572.161 675.759C571.439 675.759 570.837 675.92 570.354 676.244C569.871 676.562 569.63 676.974 569.63 677.48C569.63 677.918 569.792 678.27 570.116 678.537C570.439 678.804 570.962 679.023 571.684 679.193L573.763 679.67C574.968 679.949 575.866 680.378 576.456 680.957C577.047 681.537 577.343 682.29 577.343 683.216C577.343 684 577.116 684.699 576.661 685.312C576.212 685.92 575.584 686.398 574.777 686.744C573.976 687.091 573.047 687.264 571.991 687.264C570.525 687.264 569.329 686.952 568.402 686.327C567.476 685.696 566.908 684.801 566.698 683.642L569.161 683.267C569.314 683.909 569.63 684.395 570.107 684.724C570.584 685.048 571.206 685.21 571.973 685.21C572.809 685.21 573.476 685.037 573.976 684.69C574.476 684.338 574.726 683.909 574.726 683.403C574.726 682.994 574.573 682.651 574.266 682.372C573.965 682.094 573.502 681.884 572.877 681.741L570.661 681.256C569.439 680.977 568.536 680.534 567.951 679.926C567.371 679.318 567.081 678.548 567.081 677.616C567.081 676.844 567.297 676.168 567.729 675.588C568.161 675.009 568.758 674.557 569.519 674.233C570.28 673.903 571.152 673.739 572.135 673.739C573.55 673.739 574.664 674.045 575.476 674.659C576.289 675.267 576.826 676.082 577.087 677.105ZM579.425 687V673.909H581.973V687H579.425ZM580.712 671.889C580.268 671.889 579.888 671.741 579.57 671.446C579.257 671.145 579.101 670.787 579.101 670.372C579.101 669.952 579.257 669.594 579.57 669.298C579.888 668.997 580.268 668.847 580.712 668.847C581.155 668.847 581.533 668.997 581.845 669.298C582.163 669.594 582.322 669.952 582.322 670.372C582.322 670.787 582.163 671.145 581.845 671.446C581.533 671.741 581.155 671.889 580.712 671.889ZM590.195 687.264C588.968 687.264 587.897 686.983 586.982 686.42C586.068 685.858 585.357 685.071 584.852 684.06C584.346 683.048 584.093 681.866 584.093 680.514C584.093 679.156 584.346 677.969 584.852 676.952C585.357 675.935 586.068 675.145 586.982 674.582C587.897 674.02 588.968 673.739 590.195 673.739C591.423 673.739 592.494 674.02 593.408 674.582C594.323 675.145 595.033 675.935 595.539 676.952C596.045 677.969 596.298 679.156 596.298 680.514C596.298 681.866 596.045 683.048 595.539 684.06C595.033 685.071 594.323 685.858 593.408 686.42C592.494 686.983 591.423 687.264 590.195 687.264ZM590.204 685.125C590.999 685.125 591.658 684.915 592.181 684.494C592.704 684.074 593.09 683.514 593.34 682.815C593.596 682.116 593.724 681.347 593.724 680.506C593.724 679.67 593.596 678.903 593.34 678.205C593.09 677.5 592.704 676.935 592.181 676.509C591.658 676.082 590.999 675.869 590.204 675.869C589.403 675.869 588.738 676.082 588.21 676.509C587.687 676.935 587.298 677.5 587.042 678.205C586.792 678.903 586.667 679.67 586.667 680.506C586.667 681.347 586.792 682.116 587.042 682.815C587.298 683.514 587.687 684.074 588.21 684.494C588.738 684.915 589.403 685.125 590.204 685.125ZM600.97 679.227V687H598.422V673.909H600.868V676.04H601.03C601.331 675.347 601.803 674.79 602.445 674.369C603.093 673.949 603.908 673.739 604.891 673.739C605.783 673.739 606.564 673.926 607.235 674.301C607.905 674.67 608.425 675.222 608.794 675.955C609.164 676.687 609.348 677.594 609.348 678.673V687H606.8V678.98C606.8 678.031 606.553 677.29 606.059 676.756C605.564 676.216 604.885 675.946 604.022 675.946C603.431 675.946 602.905 676.074 602.445 676.33C601.99 676.585 601.63 676.96 601.362 677.455C601.101 677.943 600.97 678.534 600.97 679.227ZM623.788 673.909V675.955H616.638V673.909H623.788ZM618.555 670.773H621.104V683.156C621.104 683.651 621.177 684.023 621.325 684.273C621.473 684.517 621.663 684.685 621.896 684.776C622.135 684.861 622.393 684.903 622.672 684.903C622.876 684.903 623.055 684.889 623.209 684.861C623.362 684.832 623.481 684.81 623.567 684.793L624.027 686.898C623.879 686.955 623.669 687.011 623.396 687.068C623.123 687.131 622.783 687.165 622.373 687.17C621.703 687.182 621.078 687.062 620.498 686.812C619.919 686.562 619.45 686.176 619.092 685.653C618.734 685.131 618.555 684.474 618.555 683.685V670.773ZM631.261 687.264C630.033 687.264 628.962 686.983 628.048 686.42C627.133 685.858 626.423 685.071 625.917 684.06C625.411 683.048 625.158 681.866 625.158 680.514C625.158 679.156 625.411 677.969 625.917 676.952C626.423 675.935 627.133 675.145 628.048 674.582C628.962 674.02 630.033 673.739 631.261 673.739C632.488 673.739 633.559 674.02 634.474 674.582C635.389 675.145 636.099 675.935 636.604 676.952C637.11 677.969 637.363 679.156 637.363 680.514C637.363 681.866 637.11 683.048 636.604 684.06C636.099 685.071 635.389 685.858 634.474 686.42C633.559 686.983 632.488 687.264 631.261 687.264ZM631.269 685.125C632.065 685.125 632.724 684.915 633.247 684.494C633.769 684.074 634.156 683.514 634.406 682.815C634.661 682.116 634.789 681.347 634.789 680.506C634.789 679.67 634.661 678.903 634.406 678.205C634.156 677.5 633.769 676.935 633.247 676.509C632.724 676.082 632.065 675.869 631.269 675.869C630.468 675.869 629.803 676.082 629.275 676.509C628.752 676.935 628.363 677.5 628.107 678.205C627.857 678.903 627.732 679.67 627.732 680.506C627.732 681.347 627.857 682.116 628.107 682.815C628.363 683.514 628.752 684.074 629.275 684.494C629.803 684.915 630.468 685.125 631.269 685.125ZM650.633 687.264C649.366 687.264 648.275 686.977 647.36 686.403C646.451 685.824 645.753 685.026 645.264 684.009C644.775 682.991 644.531 681.827 644.531 680.514C644.531 679.185 644.781 678.011 645.281 676.994C645.781 675.972 646.485 675.173 647.395 674.599C648.304 674.026 649.375 673.739 650.608 673.739C651.602 673.739 652.488 673.923 653.267 674.293C654.045 674.656 654.673 675.168 655.15 675.827C655.633 676.486 655.92 677.256 656.011 678.136H653.531C653.395 677.523 653.082 676.994 652.593 676.551C652.11 676.108 651.463 675.886 650.65 675.886C649.94 675.886 649.318 676.074 648.784 676.449C648.255 676.818 647.843 677.347 647.548 678.034C647.253 678.716 647.105 679.523 647.105 680.455C647.105 681.409 647.25 682.233 647.539 682.926C647.829 683.619 648.238 684.156 648.767 684.537C649.301 684.918 649.929 685.108 650.65 685.108C651.133 685.108 651.571 685.02 651.963 684.844C652.36 684.662 652.693 684.403 652.96 684.068C653.233 683.733 653.423 683.33 653.531 682.858H656.011C655.92 683.705 655.645 684.46 655.184 685.125C654.724 685.79 654.108 686.312 653.335 686.693C652.568 687.074 651.667 687.264 650.633 687.264ZM658.016 687V673.909H660.479V675.989H660.616C660.854 675.284 661.275 674.73 661.877 674.327C662.485 673.918 663.172 673.713 663.939 673.713C664.099 673.713 664.286 673.719 664.502 673.73C664.724 673.741 664.897 673.756 665.022 673.773V676.21C664.92 676.182 664.738 676.151 664.476 676.116C664.215 676.077 663.954 676.057 663.692 676.057C663.09 676.057 662.553 676.185 662.082 676.44C661.616 676.69 661.246 677.04 660.974 677.489C660.701 677.932 660.564 678.437 660.564 679.006V687H658.016ZM671.68 687.264C670.391 687.264 669.28 686.989 668.348 686.438C667.422 685.881 666.706 685.099 666.2 684.094C665.7 683.082 665.45 681.898 665.45 680.54C665.45 679.199 665.7 678.017 666.2 676.994C666.706 675.972 667.411 675.173 668.314 674.599C669.223 674.026 670.286 673.739 671.501 673.739C672.24 673.739 672.956 673.861 673.649 674.105C674.342 674.349 674.965 674.733 675.516 675.256C676.067 675.778 676.501 676.457 676.82 677.293C677.138 678.122 677.297 679.131 677.297 680.318V681.222H666.891V679.312H674.8C674.8 678.642 674.663 678.048 674.391 677.531C674.118 677.009 673.734 676.597 673.24 676.295C672.751 675.994 672.178 675.844 671.518 675.844C670.803 675.844 670.178 676.02 669.643 676.372C669.115 676.719 668.706 677.173 668.416 677.736C668.132 678.293 667.99 678.898 667.99 679.551V681.043C667.99 681.918 668.143 682.662 668.45 683.276C668.763 683.889 669.197 684.358 669.754 684.682C670.311 685 670.962 685.159 671.706 685.159C672.189 685.159 672.629 685.091 673.027 684.955C673.425 684.812 673.768 684.602 674.058 684.324C674.348 684.045 674.57 683.702 674.723 683.293L677.135 683.727C676.942 684.437 676.595 685.06 676.095 685.594C675.601 686.122 674.979 686.534 674.229 686.83C673.484 687.119 672.635 687.264 671.68 687.264ZM683.214 687.29C682.384 687.29 681.634 687.136 680.964 686.83C680.294 686.517 679.762 686.065 679.37 685.474C678.984 684.884 678.791 684.159 678.791 683.301C678.791 682.562 678.933 681.955 679.217 681.477C679.501 681 679.884 680.622 680.367 680.344C680.85 680.065 681.39 679.855 681.987 679.713C682.583 679.571 683.191 679.463 683.811 679.389C684.595 679.298 685.231 679.224 685.72 679.168C686.208 679.105 686.563 679.006 686.785 678.869C687.007 678.733 687.117 678.511 687.117 678.205V678.145C687.117 677.401 686.907 676.824 686.487 676.415C686.072 676.006 685.453 675.801 684.629 675.801C683.771 675.801 683.095 675.991 682.6 676.372C682.112 676.747 681.774 677.165 681.586 677.625L679.191 677.08C679.475 676.284 679.89 675.642 680.436 675.153C680.987 674.659 681.62 674.301 682.336 674.08C683.052 673.852 683.805 673.739 684.595 673.739C685.117 673.739 685.671 673.801 686.257 673.926C686.848 674.045 687.399 674.267 687.91 674.591C688.427 674.915 688.85 675.378 689.18 675.98C689.509 676.577 689.674 677.352 689.674 678.307V687H687.186V685.21H687.083C686.919 685.54 686.671 685.864 686.342 686.182C686.012 686.5 685.589 686.764 685.072 686.974C684.555 687.185 683.936 687.29 683.214 687.29ZM683.768 685.244C684.473 685.244 685.075 685.105 685.575 684.827C686.08 684.548 686.464 684.185 686.725 683.736C686.992 683.281 687.126 682.795 687.126 682.278V680.591C687.035 680.682 686.859 680.767 686.598 680.847C686.342 680.92 686.049 680.986 685.72 681.043C685.39 681.094 685.069 681.142 684.757 681.188C684.444 681.227 684.183 681.261 683.973 681.29C683.478 681.352 683.026 681.457 682.617 681.605C682.214 681.753 681.89 681.966 681.646 682.244C681.407 682.517 681.288 682.881 681.288 683.335C681.288 683.966 681.521 684.443 681.987 684.767C682.453 685.085 683.046 685.244 683.768 685.244ZM698.459 673.909V675.955H691.309V673.909H698.459ZM693.226 670.773H695.775V683.156C695.775 683.651 695.848 684.023 695.996 684.273C696.144 684.517 696.334 684.685 696.567 684.776C696.806 684.861 697.064 684.903 697.343 684.903C697.547 684.903 697.726 684.889 697.88 684.861C698.033 684.832 698.152 684.81 698.238 684.793L698.698 686.898C698.55 686.955 698.34 687.011 698.067 687.068C697.794 687.131 697.453 687.165 697.044 687.17C696.374 687.182 695.749 687.062 695.169 686.812C694.59 686.562 694.121 686.176 693.763 685.653C693.405 685.131 693.226 684.474 693.226 683.685V670.773ZM706.059 687.264C704.77 687.264 703.659 686.989 702.727 686.438C701.801 685.881 701.085 685.099 700.579 684.094C700.079 683.082 699.829 681.898 699.829 680.54C699.829 679.199 700.079 678.017 700.579 676.994C701.085 675.972 701.79 675.173 702.693 674.599C703.602 674.026 704.665 673.739 705.881 673.739C706.619 673.739 707.335 673.861 708.028 674.105C708.721 674.349 709.344 674.733 709.895 675.256C710.446 675.778 710.881 676.457 711.199 677.293C711.517 678.122 711.676 679.131 711.676 680.318V681.222H701.27V679.312H709.179C709.179 678.642 709.042 678.048 708.77 677.531C708.497 677.009 708.113 676.597 707.619 676.295C707.131 675.994 706.557 675.844 705.898 675.844C705.182 675.844 704.557 676.02 704.023 676.372C703.494 676.719 703.085 677.173 702.795 677.736C702.511 678.293 702.369 678.898 702.369 679.551V681.043C702.369 681.918 702.523 682.662 702.829 683.276C703.142 683.889 703.577 684.358 704.133 684.682C704.69 685 705.341 685.159 706.085 685.159C706.568 685.159 707.008 685.091 707.406 684.955C707.804 684.812 708.148 684.602 708.437 684.324C708.727 684.045 708.949 683.702 709.102 683.293L711.514 683.727C711.321 684.437 710.974 685.06 710.474 685.594C709.98 686.122 709.358 686.534 708.608 686.83C707.863 687.119 707.014 687.264 706.059 687.264ZM723.225 687.29C722.395 687.29 721.645 687.136 720.975 686.83C720.304 686.517 719.773 686.065 719.381 685.474C718.994 684.884 718.801 684.159 718.801 683.301C718.801 682.562 718.943 681.955 719.227 681.477C719.512 681 719.895 680.622 720.378 680.344C720.861 680.065 721.401 679.855 721.997 679.713C722.594 679.571 723.202 679.463 723.821 679.389C724.605 679.298 725.242 679.224 725.73 679.168C726.219 679.105 726.574 679.006 726.796 678.869C727.017 678.733 727.128 678.511 727.128 678.205V678.145C727.128 677.401 726.918 676.824 726.497 676.415C726.083 676.006 725.463 675.801 724.639 675.801C723.781 675.801 723.105 675.991 722.611 676.372C722.122 676.747 721.784 677.165 721.597 677.625L719.202 677.08C719.486 676.284 719.901 675.642 720.446 675.153C720.997 674.659 721.631 674.301 722.347 674.08C723.063 673.852 723.816 673.739 724.605 673.739C725.128 673.739 725.682 673.801 726.267 673.926C726.858 674.045 727.409 674.267 727.921 674.591C728.438 674.915 728.861 675.378 729.191 675.98C729.52 676.577 729.685 677.352 729.685 678.307V687H727.196V685.21H727.094C726.929 685.54 726.682 685.864 726.352 686.182C726.023 686.5 725.6 686.764 725.083 686.974C724.566 687.185 723.946 687.29 723.225 687.29ZM723.779 685.244C724.483 685.244 725.085 685.105 725.585 684.827C726.091 684.548 726.475 684.185 726.736 683.736C727.003 683.281 727.137 682.795 727.137 682.278V680.591C727.046 680.682 726.869 680.767 726.608 680.847C726.352 680.92 726.06 680.986 725.73 681.043C725.401 681.094 725.08 681.142 724.767 681.188C724.455 681.227 724.193 681.261 723.983 681.29C723.489 681.352 723.037 681.457 722.628 681.605C722.225 681.753 721.901 681.966 721.656 682.244C721.418 682.517 721.298 682.881 721.298 683.335C721.298 683.966 721.531 684.443 721.997 684.767C722.463 685.085 723.057 685.244 723.779 685.244ZM746.283 681.571V673.909H748.84V687H746.334V684.733H746.198C745.897 685.432 745.414 686.014 744.749 686.48C744.09 686.94 743.269 687.17 742.286 687.17C741.445 687.17 740.701 686.986 740.053 686.616C739.411 686.241 738.905 685.688 738.536 684.955C738.172 684.222 737.991 683.315 737.991 682.236V673.909H740.539V681.929C740.539 682.821 740.786 683.531 741.28 684.06C741.775 684.588 742.417 684.852 743.206 684.852C743.684 684.852 744.158 684.733 744.63 684.494C745.107 684.256 745.502 683.895 745.814 683.412C746.133 682.929 746.289 682.315 746.283 681.571ZM754.092 679.227V687H751.544V673.909H753.99V676.04H754.152C754.453 675.347 754.925 674.79 755.567 674.369C756.214 673.949 757.03 673.739 758.013 673.739C758.905 673.739 759.686 673.926 760.357 674.301C761.027 674.67 761.547 675.222 761.916 675.955C762.285 676.687 762.47 677.594 762.47 678.673V687H759.922V678.98C759.922 678.031 759.675 677.29 759.18 676.756C758.686 676.216 758.007 675.946 757.143 675.946C756.553 675.946 756.027 676.074 755.567 676.33C755.112 676.585 754.751 676.96 754.484 677.455C754.223 677.943 754.092 678.534 754.092 679.227ZM765.168 687V673.909H767.716V687H765.168ZM766.455 671.889C766.011 671.889 765.631 671.741 765.313 671.446C765 671.145 764.844 670.787 764.844 670.372C764.844 669.952 765 669.594 765.313 669.298C765.631 668.997 766.011 668.847 766.455 668.847C766.898 668.847 767.276 668.997 767.588 669.298C767.906 669.594 768.065 669.952 768.065 670.372C768.065 670.787 767.906 671.145 767.588 671.446C767.276 671.741 766.898 671.889 766.455 671.889ZM781.623 673.909L776.876 687H774.149L769.393 673.909H772.129L775.444 683.983H775.581L778.887 673.909H781.623ZM788.495 687.264C787.205 687.264 786.094 686.989 785.162 686.438C784.236 685.881 783.52 685.099 783.015 684.094C782.515 683.082 782.265 681.898 782.265 680.54C782.265 679.199 782.515 678.017 783.015 676.994C783.52 675.972 784.225 675.173 785.128 674.599C786.037 674.026 787.1 673.739 788.316 673.739C789.054 673.739 789.77 673.861 790.464 674.105C791.157 674.349 791.779 674.733 792.33 675.256C792.881 675.778 793.316 676.457 793.634 677.293C793.952 678.122 794.111 679.131 794.111 680.318V681.222H783.705V679.312H791.614C791.614 678.642 791.478 678.048 791.205 677.531C790.932 677.009 790.549 676.597 790.054 676.295C789.566 675.994 788.992 675.844 788.333 675.844C787.617 675.844 786.992 676.02 786.458 676.372C785.929 676.719 785.52 677.173 785.231 677.736C784.947 678.293 784.804 678.898 784.804 679.551V681.043C784.804 681.918 784.958 682.662 785.265 683.276C785.577 683.889 786.012 684.358 786.569 684.682C787.126 685 787.776 685.159 788.52 685.159C789.003 685.159 789.444 685.091 789.841 684.955C790.239 684.812 790.583 684.602 790.873 684.324C791.162 684.045 791.384 683.702 791.537 683.293L793.949 683.727C793.756 684.437 793.41 685.06 792.91 685.594C792.415 686.122 791.793 686.534 791.043 686.83C790.299 687.119 789.449 687.264 788.495 687.264ZM796.219 687V673.909H798.682V675.989H798.818C799.057 675.284 799.477 674.73 800.08 674.327C800.687 673.918 801.375 673.713 802.142 673.713C802.301 673.713 802.489 673.719 802.705 673.73C802.926 673.741 803.099 673.756 803.224 673.773V676.21C803.122 676.182 802.94 676.151 802.679 676.116C802.418 676.077 802.156 676.057 801.895 676.057C801.293 676.057 800.756 676.185 800.284 676.44C799.818 676.69 799.449 677.04 799.176 677.489C798.903 677.932 798.767 678.437 798.767 679.006V687H796.219ZM814.519 677.105L812.21 677.514C812.113 677.219 811.96 676.937 811.749 676.67C811.545 676.403 811.266 676.185 810.914 676.014C810.562 675.844 810.122 675.759 809.593 675.759C808.872 675.759 808.269 675.92 807.786 676.244C807.303 676.562 807.062 676.974 807.062 677.48C807.062 677.918 807.224 678.27 807.548 678.537C807.872 678.804 808.394 679.023 809.116 679.193L811.195 679.67C812.4 679.949 813.298 680.378 813.889 680.957C814.48 681.537 814.775 682.29 814.775 683.216C814.775 684 814.548 684.699 814.093 685.312C813.644 685.92 813.016 686.398 812.21 686.744C811.409 687.091 810.48 687.264 809.423 687.264C807.957 687.264 806.761 686.952 805.835 686.327C804.909 685.696 804.34 684.801 804.13 683.642L806.593 683.267C806.747 683.909 807.062 684.395 807.539 684.724C808.016 685.048 808.639 685.21 809.406 685.21C810.241 685.21 810.909 685.037 811.409 684.69C811.909 684.338 812.159 683.909 812.159 683.403C812.159 682.994 812.005 682.651 811.698 682.372C811.397 682.094 810.934 681.884 810.309 681.741L808.093 681.256C806.872 680.977 805.968 680.534 805.383 679.926C804.803 679.318 804.514 678.548 804.514 677.616C804.514 676.844 804.73 676.168 805.161 675.588C805.593 675.009 806.19 674.557 806.951 674.233C807.712 673.903 808.585 673.739 809.568 673.739C810.982 673.739 812.096 674.045 812.909 674.659C813.721 675.267 814.258 676.082 814.519 677.105ZM820.666 687.29C819.837 687.29 819.087 687.136 818.416 686.83C817.746 686.517 817.215 686.065 816.823 685.474C816.436 684.884 816.243 684.159 816.243 683.301C816.243 682.562 816.385 681.955 816.669 681.477C816.953 681 817.337 680.622 817.82 680.344C818.303 680.065 818.843 679.855 819.439 679.713C820.036 679.571 820.644 679.463 821.263 679.389C822.047 679.298 822.684 679.224 823.172 679.168C823.661 679.105 824.016 679.006 824.238 678.869C824.459 678.733 824.57 678.511 824.57 678.205V678.145C824.57 677.401 824.36 676.824 823.939 676.415C823.524 676.006 822.905 675.801 822.081 675.801C821.223 675.801 820.547 675.991 820.053 676.372C819.564 676.747 819.226 677.165 819.039 677.625L816.644 677.08C816.928 676.284 817.343 675.642 817.888 675.153C818.439 674.659 819.073 674.301 819.789 674.08C820.505 673.852 821.257 673.739 822.047 673.739C822.57 673.739 823.124 673.801 823.709 673.926C824.3 674.045 824.851 674.267 825.363 674.591C825.88 674.915 826.303 675.378 826.632 675.98C826.962 676.577 827.127 677.352 827.127 678.307V687H824.638V685.21H824.536C824.371 685.54 824.124 685.864 823.794 686.182C823.465 686.5 823.041 686.764 822.524 686.974C822.007 687.185 821.388 687.29 820.666 687.29ZM821.22 685.244C821.925 685.244 822.527 685.105 823.027 684.827C823.533 684.548 823.916 684.185 824.178 683.736C824.445 683.281 824.578 682.795 824.578 682.278V680.591C824.488 680.682 824.311 680.767 824.05 680.847C823.794 680.92 823.502 680.986 823.172 681.043C822.843 681.094 822.522 681.142 822.209 681.188C821.897 681.227 821.635 681.261 821.425 681.29C820.931 681.352 820.479 681.457 820.07 681.605C819.666 681.753 819.343 681.966 819.098 682.244C818.86 682.517 818.74 682.881 818.74 683.335C818.74 683.966 818.973 684.443 819.439 684.767C819.905 685.085 820.499 685.244 821.22 685.244ZM832.349 669.545V687H829.801V669.545H832.349ZM842.368 687H839.573L845.854 669.545H848.896L855.178 687H852.382L847.448 672.716H847.311L842.368 687ZM842.837 680.165H851.905V682.381H842.837V680.165ZM856.978 687V669.545H863.2C864.552 669.545 865.674 669.778 866.566 670.244C867.464 670.71 868.135 671.355 868.578 672.179C869.021 672.997 869.242 673.943 869.242 675.017C869.242 676.085 869.018 677.026 868.569 677.838C868.126 678.645 867.456 679.273 866.558 679.722C865.666 680.17 864.544 680.395 863.191 680.395H858.478V678.128H862.953C863.805 678.128 864.498 678.006 865.032 677.761C865.572 677.517 865.967 677.162 866.217 676.696C866.467 676.23 866.592 675.67 866.592 675.017C866.592 674.358 866.464 673.787 866.208 673.304C865.958 672.821 865.563 672.452 865.024 672.196C864.49 671.935 863.788 671.804 862.919 671.804H859.612V687H856.978ZM865.595 679.125L869.907 687H866.907L862.68 679.125H865.595ZM877.154 687V673.909H879.6V676.04H879.762C880.035 675.318 880.481 674.756 881.1 674.352C881.719 673.943 882.461 673.739 883.324 673.739C884.199 673.739 884.932 673.943 885.523 674.352C886.12 674.761 886.56 675.324 886.844 676.04H886.981C887.293 675.341 887.79 674.784 888.472 674.369C889.154 673.949 889.967 673.739 890.91 673.739C892.097 673.739 893.066 674.111 893.816 674.855C894.572 675.599 894.949 676.722 894.949 678.222V687H892.401V678.46C892.401 677.574 892.16 676.932 891.677 676.534C891.194 676.136 890.617 675.938 889.947 675.938C889.117 675.938 888.472 676.193 888.012 676.705C887.552 677.21 887.322 677.861 887.322 678.656V687H884.782V678.298C884.782 677.588 884.56 677.017 884.117 676.585C883.674 676.153 883.097 675.938 882.387 675.938C881.904 675.938 881.458 676.065 881.049 676.321C880.645 676.571 880.319 676.92 880.069 677.369C879.824 677.818 879.702 678.338 879.702 678.929V687H877.154ZM901.455 687.29C900.625 687.29 899.875 687.136 899.205 686.83C898.534 686.517 898.003 686.065 897.611 685.474C897.224 684.884 897.031 684.159 897.031 683.301C897.031 682.562 897.173 681.955 897.457 681.477C897.742 681 898.125 680.622 898.608 680.344C899.091 680.065 899.631 679.855 900.227 679.713C900.824 679.571 901.432 679.463 902.051 679.389C902.835 679.298 903.472 679.224 903.96 679.168C904.449 679.105 904.804 679.006 905.026 678.869C905.247 678.733 905.358 678.511 905.358 678.205V678.145C905.358 677.401 905.148 676.824 904.727 676.415C904.313 676.006 903.693 675.801 902.869 675.801C902.011 675.801 901.335 675.991 900.841 676.372C900.352 676.747 900.014 677.165 899.827 677.625L897.432 677.08C897.716 676.284 898.131 675.642 898.676 675.153C899.227 674.659 899.861 674.301 900.577 674.08C901.293 673.852 902.046 673.739 902.835 673.739C903.358 673.739 903.912 673.801 904.497 673.926C905.088 674.045 905.639 674.267 906.151 674.591C906.668 674.915 907.091 675.378 907.421 675.98C907.75 676.577 907.915 677.352 907.915 678.307V687H905.426V685.21H905.324C905.159 685.54 904.912 685.864 904.582 686.182C904.253 686.5 903.83 686.764 903.313 686.974C902.796 687.185 902.176 687.29 901.455 687.29ZM902.009 685.244C902.713 685.244 903.315 685.105 903.815 684.827C904.321 684.548 904.705 684.185 904.966 683.736C905.233 683.281 905.367 682.795 905.367 682.278V680.591C905.276 680.682 905.099 680.767 904.838 680.847C904.582 680.92 904.29 680.986 903.96 681.043C903.631 681.094 903.31 681.142 902.997 681.188C902.685 681.227 902.423 681.261 902.213 681.29C901.719 681.352 901.267 681.457 900.858 681.605C900.455 681.753 900.131 681.966 899.886 682.244C899.648 682.517 899.528 682.881 899.528 683.335C899.528 683.966 899.761 684.443 900.227 684.767C900.693 685.085 901.287 685.244 902.009 685.244ZM910.589 687V673.909H913.052V675.989H913.188C913.427 675.284 913.848 674.73 914.45 674.327C915.058 673.918 915.745 673.713 916.512 673.713C916.671 673.713 916.859 673.719 917.075 673.73C917.296 673.741 917.47 673.756 917.595 673.773V676.21C917.492 676.182 917.311 676.151 917.049 676.116C916.788 676.077 916.527 676.057 916.265 676.057C915.663 676.057 915.126 676.185 914.654 676.44C914.188 676.69 913.819 677.04 913.546 677.489C913.274 677.932 913.137 678.437 913.137 679.006V687H910.589ZM921.424 682.56L921.407 679.449H921.85L927.066 673.909H930.117L924.168 680.216H923.767L921.424 682.56ZM919.08 687V669.545H921.628V687H919.08ZM927.347 687L922.659 680.778L924.415 678.997L930.475 687H927.347ZM936.822 687.264C935.533 687.264 934.422 686.989 933.49 686.438C932.564 685.881 931.848 685.099 931.342 684.094C930.842 683.082 930.592 681.898 930.592 680.54C930.592 679.199 930.842 678.017 931.342 676.994C931.848 675.972 932.552 675.173 933.456 674.599C934.365 674.026 935.427 673.739 936.643 673.739C937.382 673.739 938.098 673.861 938.791 674.105C939.484 674.349 940.106 674.733 940.658 675.256C941.209 675.778 941.643 676.457 941.961 677.293C942.28 678.122 942.439 679.131 942.439 680.318V681.222H932.033V679.312H939.942C939.942 678.642 939.805 678.048 939.533 677.531C939.26 677.009 938.876 676.597 938.382 676.295C937.893 675.994 937.319 675.844 936.66 675.844C935.944 675.844 935.319 676.02 934.785 676.372C934.257 676.719 933.848 677.173 933.558 677.736C933.274 678.293 933.132 678.898 933.132 679.551V681.043C933.132 681.918 933.285 682.662 933.592 683.276C933.905 683.889 934.339 684.358 934.896 684.682C935.453 685 936.104 685.159 936.848 685.159C937.331 685.159 937.771 685.091 938.169 684.955C938.567 684.812 938.91 684.602 939.2 684.324C939.49 684.045 939.711 683.702 939.865 683.293L942.277 683.727C942.084 684.437 941.737 685.06 941.237 685.594C940.743 686.122 940.121 686.534 939.371 686.83C938.626 687.119 937.777 687.264 936.822 687.264ZM944.546 687V673.909H947.009V675.989H947.146C947.384 675.284 947.805 674.73 948.407 674.327C949.015 673.918 949.702 673.713 950.469 673.713C950.629 673.713 950.816 673.719 951.032 673.73C951.254 673.741 951.427 673.756 951.552 673.773V676.21C951.45 676.182 951.268 676.151 951.006 676.116C950.745 676.077 950.484 676.057 950.222 676.057C949.62 676.057 949.083 676.185 948.612 676.44C948.146 676.69 947.776 677.04 947.504 677.489C947.231 677.932 947.094 678.437 947.094 679.006V687H944.546ZM964.311 687.264C963.021 687.264 961.91 686.989 960.978 686.438C960.052 685.881 959.336 685.099 958.831 684.094C958.331 683.082 958.081 681.898 958.081 680.54C958.081 679.199 958.331 678.017 958.831 676.994C959.336 675.972 960.041 675.173 960.944 674.599C961.853 674.026 962.916 673.739 964.132 673.739C964.87 673.739 965.586 673.861 966.28 674.105C966.973 674.349 967.595 674.733 968.146 675.256C968.697 675.778 969.132 676.457 969.45 677.293C969.768 678.122 969.927 679.131 969.927 680.318V681.222H959.521V679.312H967.43C967.43 678.642 967.294 678.048 967.021 677.531C966.748 677.009 966.365 676.597 965.87 676.295C965.382 675.994 964.808 675.844 964.149 675.844C963.433 675.844 962.808 676.02 962.274 676.372C961.745 676.719 961.336 677.173 961.047 677.736C960.763 678.293 960.62 678.898 960.62 679.551V681.043C960.62 681.918 960.774 682.662 961.081 683.276C961.393 683.889 961.828 684.358 962.385 684.682C962.941 685 963.592 685.159 964.336 685.159C964.819 685.159 965.26 685.091 965.657 684.955C966.055 684.812 966.399 684.602 966.689 684.324C966.978 684.045 967.2 683.702 967.353 683.293L969.765 683.727C969.572 684.437 969.226 685.06 968.726 685.594C968.231 686.122 967.609 686.534 966.859 686.83C966.115 687.119 965.265 687.264 964.311 687.264ZM977.549 687.264C976.282 687.264 975.191 686.977 974.276 686.403C973.367 685.824 972.668 685.026 972.179 684.009C971.691 682.991 971.447 681.827 971.447 680.514C971.447 679.185 971.697 678.011 972.197 676.994C972.697 675.972 973.401 675.173 974.31 674.599C975.219 674.026 976.29 673.739 977.523 673.739C978.518 673.739 979.404 673.923 980.182 674.293C980.961 674.656 981.589 675.168 982.066 675.827C982.549 676.486 982.836 677.256 982.927 678.136H980.447C980.31 677.523 979.998 676.994 979.509 676.551C979.026 676.108 978.378 675.886 977.566 675.886C976.856 675.886 976.233 676.074 975.699 676.449C975.171 676.818 974.759 677.347 974.464 678.034C974.168 678.716 974.02 679.523 974.02 680.455C974.02 681.409 974.165 682.233 974.455 682.926C974.745 683.619 975.154 684.156 975.682 684.537C976.216 684.918 976.844 685.108 977.566 685.108C978.049 685.108 978.486 685.02 978.878 684.844C979.276 684.662 979.608 684.403 979.876 684.068C980.148 683.733 980.339 683.33 980.447 682.858H982.927C982.836 683.705 982.56 684.46 982.1 685.125C981.64 685.79 981.023 686.312 980.251 686.693C979.483 687.074 978.583 687.264 977.549 687.264ZM990.446 687.264C989.219 687.264 988.148 686.983 987.233 686.42C986.318 685.858 985.608 685.071 985.102 684.06C984.597 683.048 984.344 681.866 984.344 680.514C984.344 679.156 984.597 677.969 985.102 676.952C985.608 675.935 986.318 675.145 987.233 674.582C988.148 674.02 989.219 673.739 990.446 673.739C991.673 673.739 992.744 674.02 993.659 674.582C994.574 675.145 995.284 675.935 995.79 676.952C996.295 677.969 996.548 679.156 996.548 680.514C996.548 681.866 996.295 683.048 995.79 684.06C995.284 685.071 994.574 685.858 993.659 686.42C992.744 686.983 991.673 687.264 990.446 687.264ZM990.455 685.125C991.25 685.125 991.909 684.915 992.432 684.494C992.955 684.074 993.341 683.514 993.591 682.815C993.847 682.116 993.974 681.347 993.974 680.506C993.974 679.67 993.847 678.903 993.591 678.205C993.341 677.5 992.955 676.935 992.432 676.509C991.909 676.082 991.25 675.869 990.455 675.869C989.653 675.869 988.989 676.082 988.46 676.509C987.938 676.935 987.548 677.5 987.293 678.205C987.043 678.903 986.918 679.67 986.918 680.506C986.918 681.347 987.043 682.116 987.293 682.815C987.548 683.514 987.938 684.074 988.46 684.494C988.989 684.915 989.653 685.125 990.455 685.125ZM1008.48 677.105L1006.17 677.514C1006.08 677.219 1005.92 676.937 1005.71 676.67C1005.51 676.403 1005.23 676.185 1004.88 676.014C1004.53 675.844 1004.08 675.759 1003.56 675.759C1002.83 675.759 1002.23 675.92 1001.75 676.244C1001.27 676.562 1001.03 676.974 1001.03 677.48C1001.03 677.918 1001.19 678.27 1001.51 678.537C1001.83 678.804 1002.36 679.023 1003.08 679.193L1005.16 679.67C1006.36 679.949 1007.26 680.378 1007.85 680.957C1008.44 681.537 1008.74 682.29 1008.74 683.216C1008.74 684 1008.51 684.699 1008.06 685.312C1007.61 685.92 1006.98 686.398 1006.17 686.744C1005.37 687.091 1004.44 687.264 1003.39 687.264C1001.92 687.264 1000.72 686.952 999.798 686.327C998.872 685.696 998.303 684.801 998.093 683.642L1000.56 683.267C1000.71 683.909 1001.03 684.395 1001.5 684.724C1001.98 685.048 1002.6 685.21 1003.37 685.21C1004.2 685.21 1004.87 685.037 1005.37 684.69C1005.87 684.338 1006.12 683.909 1006.12 683.403C1006.12 682.994 1005.97 682.651 1005.66 682.372C1005.36 682.094 1004.9 681.884 1004.27 681.741L1002.06 681.256C1000.83 680.977 999.931 680.534 999.346 679.926C998.767 679.318 998.477 678.548 998.477 677.616C998.477 676.844 998.693 676.168 999.124 675.588C999.556 675.009 1000.15 674.557 1000.91 674.233C1001.68 673.903 1002.55 673.739 1003.53 673.739C1004.95 673.739 1006.06 674.045 1006.87 674.659C1007.68 675.267 1008.22 676.082 1008.48 677.105ZM1012.43 691.909C1012.05 691.909 1011.7 691.878 1011.39 691.815C1011.08 691.759 1010.85 691.696 1010.69 691.628L1011.31 689.54C1011.77 689.665 1012.19 689.719 1012.55 689.702C1012.91 689.685 1013.23 689.548 1013.51 689.293C1013.8 689.037 1014.05 688.619 1014.26 688.04L1014.58 687.17L1009.79 673.909H1012.52L1015.83 684.068H1015.97L1019.28 673.909H1022.02L1016.62 688.747C1016.37 689.429 1016.06 690.006 1015.67 690.477C1015.28 690.955 1014.82 691.313 1014.29 691.551C1013.75 691.79 1013.14 691.909 1012.43 691.909ZM1033.5 677.105L1031.19 677.514C1031.1 677.219 1030.94 676.937 1030.73 676.67C1030.53 676.403 1030.25 676.185 1029.9 676.014C1029.55 675.844 1029.11 675.759 1028.58 675.759C1027.86 675.759 1027.25 675.92 1026.77 676.244C1026.29 676.562 1026.05 676.974 1026.05 677.48C1026.05 677.918 1026.21 678.27 1026.53 678.537C1026.86 678.804 1027.38 679.023 1028.1 679.193L1030.18 679.67C1031.38 679.949 1032.28 680.378 1032.87 680.957C1033.46 681.537 1033.76 682.29 1033.76 683.216C1033.76 684 1033.53 684.699 1033.08 685.312C1032.63 685.92 1032 686.398 1031.19 686.744C1030.39 687.091 1029.46 687.264 1028.41 687.264C1026.94 687.264 1025.74 686.952 1024.82 686.327C1023.89 685.696 1023.32 684.801 1023.11 683.642L1025.58 683.267C1025.73 683.909 1026.05 684.395 1026.52 684.724C1027 685.048 1027.62 685.21 1028.39 685.21C1029.22 685.21 1029.89 685.037 1030.39 684.69C1030.89 684.338 1031.14 683.909 1031.14 683.403C1031.14 682.994 1030.99 682.651 1030.68 682.372C1030.38 682.094 1029.92 681.884 1029.29 681.741L1027.08 681.256C1025.86 680.977 1024.95 680.534 1024.37 679.926C1023.79 679.318 1023.5 678.548 1023.5 677.616C1023.5 676.844 1023.71 676.168 1024.15 675.588C1024.58 675.009 1025.17 674.557 1025.94 674.233C1026.7 673.903 1027.57 673.739 1028.55 673.739C1029.97 673.739 1031.08 674.045 1031.89 674.659C1032.71 675.267 1033.24 676.082 1033.5 677.105ZM1041.95 673.909V675.955H1034.8V673.909H1041.95ZM1036.72 670.773H1039.27V683.156C1039.27 683.651 1039.34 684.023 1039.49 684.273C1039.64 684.517 1039.83 684.685 1040.06 684.776C1040.3 684.861 1040.56 684.903 1040.84 684.903C1041.04 684.903 1041.22 684.889 1041.37 684.861C1041.53 684.832 1041.64 684.81 1041.73 684.793L1042.19 686.898C1042.04 686.955 1041.83 687.011 1041.56 687.068C1041.29 687.131 1040.95 687.165 1040.54 687.17C1039.87 687.182 1039.24 687.062 1038.66 686.812C1038.08 686.562 1037.61 686.176 1037.26 685.653C1036.9 685.131 1036.72 684.474 1036.72 683.685V670.773ZM1049.55 687.264C1048.26 687.264 1047.15 686.989 1046.22 686.438C1045.29 685.881 1044.58 685.099 1044.07 684.094C1043.57 683.082 1043.32 681.898 1043.32 680.54C1043.32 679.199 1043.57 678.017 1044.07 676.994C1044.58 675.972 1045.28 675.173 1046.19 674.599C1047.09 674.026 1048.16 673.739 1049.37 673.739C1050.11 673.739 1050.83 673.861 1051.52 674.105C1052.21 674.349 1052.84 674.733 1053.39 675.256C1053.94 675.778 1054.37 676.457 1054.69 677.293C1055.01 678.122 1055.17 679.131 1055.17 680.318V681.222H1044.76V679.312H1052.67C1052.67 678.642 1052.53 678.048 1052.26 677.531C1051.99 677.009 1051.61 676.597 1051.11 676.295C1050.62 675.994 1050.05 675.844 1049.39 675.844C1048.67 675.844 1048.05 676.02 1047.52 676.372C1046.99 676.719 1046.58 677.173 1046.29 677.736C1046 678.293 1045.86 678.898 1045.86 679.551V681.043C1045.86 681.918 1046.02 682.662 1046.32 683.276C1046.63 683.889 1047.07 684.358 1047.63 684.682C1048.18 685 1048.83 685.159 1049.58 685.159C1050.06 685.159 1050.5 685.091 1050.9 684.955C1051.3 684.812 1051.64 684.602 1051.93 684.324C1052.22 684.045 1052.44 683.702 1052.59 683.293L1055.01 683.727C1054.81 684.437 1054.47 685.06 1053.97 685.594C1053.47 686.122 1052.85 686.534 1052.1 686.83C1051.36 687.119 1050.51 687.264 1049.55 687.264ZM1057.28 687V673.909H1059.72V676.04H1059.88C1060.16 675.318 1060.6 674.756 1061.22 674.352C1061.84 673.943 1062.58 673.739 1063.45 673.739C1064.32 673.739 1065.05 673.943 1065.65 674.352C1066.24 674.761 1066.68 675.324 1066.97 676.04H1067.1C1067.42 675.341 1067.91 674.784 1068.59 674.369C1069.28 673.949 1070.09 673.739 1071.03 673.739C1072.22 673.739 1073.19 674.111 1073.94 674.855C1074.69 675.599 1075.07 676.722 1075.07 678.222V687H1072.52V678.46C1072.52 677.574 1072.28 676.932 1071.8 676.534C1071.32 676.136 1070.74 675.938 1070.07 675.938C1069.24 675.938 1068.59 676.193 1068.13 676.705C1067.67 677.21 1067.44 677.861 1067.44 678.656V687H1064.9V678.298C1064.9 677.588 1064.68 677.017 1064.24 676.585C1063.8 676.153 1063.22 675.938 1062.51 675.938C1062.03 675.938 1061.58 676.065 1061.17 676.321C1060.77 676.571 1060.44 676.92 1060.19 677.369C1059.95 677.818 1059.82 678.338 1059.82 678.929V687H1057.28ZM1079.45 687.162C1078.98 687.162 1078.58 686.997 1078.24 686.668C1077.91 686.332 1077.74 685.929 1077.74 685.457C1077.74 684.991 1077.91 684.594 1078.24 684.264C1078.58 683.929 1078.98 683.761 1079.45 683.761C1079.91 683.761 1080.31 683.929 1080.65 684.264C1080.98 684.594 1081.15 684.991 1081.15 685.457C1081.15 685.77 1081.07 686.057 1080.91 686.318C1080.76 686.574 1080.55 686.778 1080.3 686.932C1080.04 687.085 1079.76 687.162 1079.45 687.162Z" fill="black"/>
<g filter="url(#filter0_di_1808_484)">
<path d="M696.988 342.281L599.508 361.264C594.813 362.178 593.958 368.528 598.243 370.652L709.992 426.029C711.234 426.645 712.675 426.717 713.973 426.229L821.381 385.823C825.906 384.12 825.621 377.626 820.964 376.327L699.288 342.373C698.539 342.164 697.751 342.132 696.988 342.281Z" fill="white"/>
</g>
<path d="M598.582 157.488L706.118 378.388C707.757 381.755 712.379 382.192 714.619 379.192L870.464 170.527C872.863 167.315 870.695 162.727 866.69 162.54L603.309 150.305C599.518 150.129 596.92 154.075 598.582 157.488Z" fill="url(#paint1_linear_1808_484)" fill-opacity="0.2"/>
<g filter="url(#filter1_di_1808_484)">
<rect x="641.078" y="158.961" width="129.984" height="129.984" rx="40" transform="rotate(-14.6882 641.078 158.961)" fill="#FFDF71"/>
<rect x="642.909" y="160.032" width="126.984" height="126.984" rx="38.5" transform="rotate(-14.6882 642.909 160.032)" stroke="#FFE385" stroke-width="3"/>
</g>
<path fill-rule="evenodd" clip-rule="evenodd" d="M728.731 160.018C729.83 159.907 730.811 160.707 730.923 161.806L735.01 202.076C735.121 203.175 734.321 204.156 733.222 204.268L730.475 204.546C729.377 204.658 728.395 203.858 728.284 202.759L724.197 162.489C724.085 161.39 724.886 160.408 725.985 160.297L728.731 160.018Z" fill="black"/>
<path d="M722.452 179.27C724.298 186.312 720.085 193.518 713.042 195.364C706 197.21 698.794 192.998 696.948 185.955C695.102 178.912 699.315 171.707 706.357 169.861C713.4 168.014 720.606 172.227 722.452 179.27Z" fill="#FF004D"/>
<path fill-rule="evenodd" clip-rule="evenodd" d="M711.328 188.825C714.759 187.925 716.812 184.415 715.912 180.984C715.013 177.553 711.503 175.501 708.071 176.4C704.64 177.299 702.588 180.81 703.487 184.241C704.387 187.672 707.897 189.724 711.328 188.825ZM713.042 195.364C720.085 193.518 724.298 186.312 722.452 179.27C720.606 172.227 713.4 168.014 706.357 169.861C699.315 171.707 695.102 178.912 696.948 185.955C698.794 192.998 706 197.21 713.042 195.364Z" fill="black"/>
<path d="M691.273 192.845C690.974 192.091 691.402 191.246 692.187 191.04L739.1 178.743C739.88 178.538 740.664 179.057 740.781 179.854L748.385 231.674C748.485 232.356 748.056 233.004 747.39 233.179L712.157 242.414C711.496 242.587 710.809 242.239 710.557 241.603L691.273 192.845Z" fill="white"/>
<path fill-rule="evenodd" clip-rule="evenodd" d="M688.128 194.079C687.084 191.439 688.582 188.481 691.328 187.761L738.241 175.464C740.97 174.749 743.714 176.564 744.123 179.354L751.728 231.174C752.078 233.56 750.578 235.828 748.245 236.439L713.013 245.674C710.697 246.281 708.293 245.063 707.412 242.837L688.128 194.079ZM695.256 193.72L713.038 238.679L744.775 230.36L737.764 182.578L695.256 193.72Z" fill="black"/>
<path fill-rule="evenodd" clip-rule="evenodd" d="M742.97 193.801L748.522 231.637C748.622 232.318 748.194 232.966 747.527 233.141L712.295 242.376C711.633 242.55 710.946 242.202 710.695 241.566L696.609 205.953L742.97 193.801Z" fill="#FFDF71"/>
<path fill-rule="evenodd" clip-rule="evenodd" d="M692.07 203.656L745.773 189.579L751.873 231.152C752.224 233.538 750.724 235.805 748.391 236.417L713.159 245.652C710.843 246.259 708.439 245.041 707.558 242.815L692.07 203.656ZM701.162 208.262L713.184 238.657L744.921 230.337L740.181 198.034L701.162 208.262Z" fill="black"/>
<defs>
<filter id="filter0_di_1808_484" x="495.461" y="262.188" width="429.16" height="284.359" filterUnits="userSpaceOnUse" color-interpolation-filters="sRGB">
<feFlood flood-opacity="0" result="BackgroundImageFix"/>
<feColorMatrix in="SourceAlpha" type="matrix" values="0 0 0 0 0 0 0 0 0 0 0 0 0 0 0 0 0 0 127 0" result="hardAlpha"/>
<feOffset dy="20"/>
<feGaussianBlur stdDeviation="50"/>
<feComposite in2="hardAlpha" operator="out"/>
<feColorMatrix type="matrix" values="0 0 0 0 1 0 0 0 0 1 0 0 0 0 1 0 0 0 0.3 0"/>
<feBlend mode="normal" in2="BackgroundImageFix" result="effect1_dropShadow_1808_484"/>
<feBlend mode="normal" in="SourceGraphic" in2="effect1_dropShadow_1808_484" result="shape"/>
<feColorMatrix in="SourceAlpha" type="matrix" values="0 0 0 0 0 0 0 0 0 0 0 0 0 0 0 0 0 0 127 0" result="hardAlpha"/>
<feOffset dy="-20"/>
<feGaussianBlur stdDeviation="15"/>
<feComposite in2="hardAlpha" operator="arithmetic" k2="-1" k3="1"/>
<feColorMatrix type="matrix" values="0 0 0 0 0.270834 0 0 0 0 0.5625 0 0 0 0 1 0 0 0 0.1 0"/>
<feBlend mode="normal" in2="shape" result="effect2_innerShadow_1808_484"/>
</filter>
<filter id="filter1_di_1808_484" x="549.902" y="64.8281" width="341.043" height="341.047" filterUnits="userSpaceOnUse" color-interpolation-filters="sRGB">
<feFlood flood-opacity="0" result="BackgroundImageFix"/>
<feColorMatrix in="SourceAlpha" type="matrix" values="0 0 0 0 0 0 0 0 0 0 0 0 0 0 0 0 0 0 127 0" result="hardAlpha"/>
<feOffset dy="30"/>
<feGaussianBlur stdDeviation="50"/>
<feComposite in2="hardAlpha" operator="out"/>
<feColorMatrix type="matrix" values="0 0 0 0 0 0 0 0 0 0 0 0 0 0 0 0 0 0 0.1 0"/>
<feBlend mode="normal" in2="BackgroundImageFix" result="effect1_dropShadow_1808_484"/>
<feBlend mode="normal" in="SourceGraphic" in2="effect1_dropShadow_1808_484" result="shape"/>
<feColorMatrix in="SourceAlpha" type="matrix" values="0 0 0 0 0 0 0 0 0 0 0 0 0 0 0 0 0 0 127 0" result="hardAlpha"/>
<feOffset dy="-20"/>
<feGaussianBlur stdDeviation="20"/>
<feComposite in2="hardAlpha" operator="arithmetic" k2="-1" k3="1"/>
<feColorMatrix type="matrix" values="0 0 0 0 1 0 0 0 0 0 0 0 0 0 0 0 0 0 0.1 0"/>
<feBlend mode="normal" in2="shape" result="effect2_innerShadow_1808_484"/>
</filter>
<linearGradient id="paint0_linear_1808_484" x1="1016.5" y1="381.5" x2="924" y2="565" gradientUnits="userSpaceOnUse">
<stop stop-color="#FF005C"/>
<stop offset="1" stop-color="#BB4BFF"/>
</linearGradient>
<linearGradient id="paint1_linear_1808_484" x1="706.883" y1="365.288" x2="730.173" y2="181.334" gradientUnits="userSpaceOnUse">
<stop stop-color="#00A3FF"/>
<stop offset="1" stop-color="#00A3FF" stop-opacity="0"/>
</linearGradient>
</defs>
</svg>
